<?xml version="1.0" encoding="utf-8"?>
<!-- Generator: Adobe Illustrator 19.0.1, SVG Export Plug-In . SVG Version: 6.00 Build 0)  -->
<svg version="1.1" id="Layer_1" xmlns="http://www.w3.org/2000/svg" xmlns:xlink="http://www.w3.org/1999/xlink" x="0px" y="0px"
	 viewBox="0 0 52 52" style="enable-background:new 0 0 52 52;" xml:space="preserve">
<style type="text/css">
	.st0{fill:none;stroke:#FFFFFF;stroke-miterlimit:10;}
	.st1{fill:#FFFFFF;}
	.st2{fill:#EE2427;}
	.st3{fill:none;stroke:#4B647F;stroke-miterlimit:10;}
	.st4{fill:#4B647F;}
	.st5{fill:#EB272A;}
</style>
<g>
	<path class="st3" d="M9.9,42.8c-4.4-0.7-6.9-2.9-7.6-6.5c-0.8-3.6,0.9-8.7,7.4-10"/>
	<circle class="st4" cx="25" cy="11.9" r="3.2"/>
	<circle class="st4" cx="25" cy="41.2" r="3.2"/>
	<circle class="st4" cx="10.5" cy="26.6" r="3.2"/>
	<circle class="st4" cx="40.1" cy="26.6" r="3.2"/>
	<g>
		<g>
			<path class="st4" d="M25.1,3.9c12.2,0,22.1,9.9,22.1,22.1s-9.9,22.1-22.1,22.1S3,38.2,3,26S12.9,3.9,25.1,3.9 M25.1,2.9
				C12.4,2.9,2,13.2,2,26c0,12.8,10.4,23.1,23.1,23.1S48.3,38.8,48.3,26C48.3,13.2,37.9,2.9,25.1,2.9L25.1,2.9z"/>
		</g>
	</g>
	<path class="st3" d="M5.6,14.7c-2-1.6-4.2-12.1,19.9,10.9c23.5,22.5,12.8,21.7,11,19.9"/>
	<path class="st3" d="M16.3,46.8c-1.7,1.6-15.6,2.6,9.1-21.3c24.9-24,21.7-12,19.7-10"/>
	<path class="st3" d="M39.7,26.3c0-2.6-6.5-4.7-14.5-4.7"/>
	<path class="st3" d="M24.9,12.1c2.6,0,4.7,6.5,4.7,14.5"/>
	<path class="st3" d="M10.4,26.9c0,2.6,6.5,4.7,14.5,4.7"/>
	<path class="st3" d="M25.2,41.1c-2.6,0-4.7-6.5-4.7-14.5"/>
	<path class="st3" d="M47.9,24.4c2.5,0.7,5.2,11.6-7.1,2.3"/>
	<circle class="st4" cx="25" cy="26.6" r="7.4"/>
	<circle class="st1" cx="25" cy="26.6" r="3.2"/>
</g>
</svg>
