<?xml version="1.0" encoding="utf-8"?>
<!-- Generator: Adobe Illustrator 19.0.1, SVG Export Plug-In . SVG Version: 6.00 Build 0)  -->
<svg version="1.1" id="Layer_1" xmlns="http://www.w3.org/2000/svg" xmlns:xlink="http://www.w3.org/1999/xlink" x="0px" y="0px"
	 viewBox="0 0 552 560" style="enable-background:new 0 0 552 560;" xml:space="preserve">
<style type="text/css">
	.st0{fill:#FFFFFF;}
</style>
<g>
	<g id="XMLID_2925_">
		<polygon id="XMLID_2927_" class="st0" points="318,320.8 377,320.8 377,501.3 318,501.3 		"/>
		<rect id="XMLID_2926_" x="318" y="320.8" class="st0" width="180.5" height="58.8"/>
		
			<rect id="XMLID_1_" x="414.8" y="347" transform="matrix(0.7011 -0.7131 0.7131 0.7011 -184.4173 448.4874)" class="st0" width="55.9" height="194.4"/>
	</g>
	<g id="XMLID_2_">
		<polygon id="XMLID_5_" class="st0" points="320.2,241.3 320.2,182.3 500.7,182.3 500.7,241.3 		"/>
		<rect id="XMLID_4_" x="320.2" y="60.8" class="st0" width="58.8" height="180.5"/>
		
			<rect id="XMLID_3_" x="415.6" y="19.5" transform="matrix(-0.7131 -0.7011 0.7011 -0.7131 678.0686 510.754)" class="st0" width="55.9" height="194.4"/>
	</g>
	<g id="XMLID_6_">
		<polygon id="XMLID_9_" class="st0" points="228.5,241.3 228.5,182.3 47.9,182.3 47.9,241.3 		"/>
		<rect id="XMLID_8_" x="169.6" y="60.8" class="st0" width="58.8" height="180.5"/>
		
			<rect id="XMLID_7_" x="77.1" y="19.5" transform="matrix(0.7131 -0.7011 0.7011 0.7131 -51.6209 107.1252)" class="st0" width="55.9" height="194.4"/>
	</g>
	<g id="XMLID_10_">
		<polygon id="XMLID_13_" class="st0" points="230.6,320.8 171.6,320.8 171.6,501.3 230.6,501.3 		"/>
		<rect id="XMLID_12_" x="50.1" y="320.8" class="st0" width="180.5" height="58.8"/>
		
			<rect id="XMLID_11_" x="78" y="347" transform="matrix(-0.7011 -0.7131 0.7131 -0.7011 -136.6044 831.1358)" class="st0" width="55.9" height="194.4"/>
	</g>
</g>
</svg>
