<?xml version="1.0" encoding="utf-8"?>
<!-- Generator: Adobe Illustrator 19.1.0, SVG Export Plug-In . SVG Version: 6.00 Build 0)  -->
<svg version="1.1" id="Layer_1" xmlns="http://www.w3.org/2000/svg" xmlns:xlink="http://www.w3.org/1999/xlink" x="0px" y="0px"
	 viewBox="-297 388 15.8 18" style="enable-background:new -297 388 15.8 18;" xml:space="preserve">
<style type="text/css">
	.st0{fill:#FFFFFF;}
</style>
<path class="st0" d="M-282.5,390.4V405h-11.8c-0.9,0-1.7-0.8-1.7-1.7s0.8-1.7,1.7-1.7h10.7V388h-11.2c-1.2,0-2.2,1-2.2,2.2v13.5
	c0,1.2,1,2.2,2.2,2.2h13.5v-15.8h-1.2V390.4z M-289.5,398.9c-0.1,0.2-0.3,0.2-0.6,0.2s-0.5-0.1-0.6-0.2s-0.2-0.4-0.2-0.6
	c0-0.6,0.3-0.8,0.8-0.8c0.3,0,0.5,0.1,0.6,0.2c0.1,0.1,0.2,0.4,0.2,0.6C-289.3,398.6-289.3,398.8-289.5,398.9z M-289.8,390.7
	c0.7,0,1.3,0.2,1.7,0.5c0.4,0.4,0.6,0.8,0.6,1.5c0,0.3,0,0.5-0.1,0.7s-0.2,0.4-0.4,0.6c-0.2,0.2-0.4,0.5-0.9,0.8
	c-0.3,0.3-0.6,0.5-0.7,0.7s-0.2,0.4-0.2,0.7v0.3h-1.1V396c0-0.4,0.1-0.7,0.2-1c0.1-0.3,0.4-0.6,0.8-0.8c0.4-0.3,0.7-0.6,0.9-0.8
	c0.1-0.2,0.2-0.4,0.2-0.7s-0.1-0.6-0.3-0.7c-0.2-0.2-0.5-0.2-0.9-0.2s-0.7,0-1,0.1s-0.6,0.2-0.9,0.4l-0.5-1
	C-291.5,390.9-290.7,390.7-289.8,390.7z"/>
</svg>
