<?xml version="1.0" encoding="utf-8"?>
<!-- Generator: Adobe Illustrator 19.1.0, SVG Export Plug-In . SVG Version: 6.00 Build 0)  -->
<svg version="1.1" id="Layer_1" xmlns="http://www.w3.org/2000/svg" xmlns:xlink="http://www.w3.org/1999/xlink" x="0px" y="0px"
	 viewBox="-279.6 388.5 18.3 16" style="enable-background:new -279.6 388.5 18.3 16;" xml:space="preserve">
<style type="text/css">
	.st0{fill:#4E657D;}
</style>
<g>
	<path class="st0" d="M-261.4,395c0-3.6-1.1-6.5-2.3-6.5h0h-1.5c0,0-3.5,2.6-8.5,3.6c-0.2,0.8-0.3,1.8-0.3,2.9
		c0,1.1,0.1,2.1,0.3,2.9c5,1,8.5,3.6,8.5,3.6h1.5c0,0,0,0,0,0C-262.4,401.5-261.4,398.6-261.4,395L-261.4,395z M-264.2,400.6
		c-0.2,0-0.3-0.2-0.4-0.3c-0.2-0.3-0.4-0.6-0.6-1.1c-0.4-1.1-0.6-2.6-0.6-4.1c0-1.6,0.2-3,0.6-4.1c0.2-0.5,0.4-0.9,0.6-1.1
		c0.1-0.1,0.3-0.3,0.4-0.3c0.2,0,0.4,0.2,0.4,0.3c0.2,0.3,0.4,0.6,0.6,1.1c0.4,1.1,0.6,2.6,0.6,4.1c0,1.6-0.2,3-0.6,4.1
		c-0.2,0.5-0.4,0.9-0.6,1.1C-263.8,400.4-264,400.6-264.2,400.6 M-275.1,395c0-0.9,0.1-1.8,0.2-2.7c-0.8,0.1-1.6,0.2-2.5,0.2h-1.2
		l-1,1.7v1.6l1,1.7h1.2c0.9,0,1.7,0.1,2.5,0.2C-275.1,396.9-275.1,395.9-275.1,395L-275.1,395L-275.1,395z M-273.1,398.8l-2.3-0.4
		l1.5,5.7c0.1,0.3,0.4,0.4,0.7,0.3l2.1-0.8c0.3-0.1,0.4-0.4,0.3-0.7L-273.1,398.8L-273.1,398.8z M-264.2,397.2
		c-0.1,0-0.1-0.1-0.2-0.1c-0.1-0.1-0.2-0.2-0.2-0.4c-0.2-0.4-0.2-1-0.2-1.6s0.1-1.2,0.2-1.6c0.1-0.2,0.2-0.3,0.2-0.4
		c0,0,0.1-0.1,0.2-0.1c0.1,0,0.1,0.1,0.2,0.1c0.1,0.1,0.2,0.2,0.2,0.4c0.2,0.4,0.2,1,0.2,1.6s-0.1,1.2-0.2,1.6
		c-0.1,0.2-0.2,0.3-0.2,0.4C-264.1,397.1-264.1,397.2-264.2,397.2"/>
</g>
</svg>
