<?xml version="1.0" encoding="utf-8"?>
<!-- Generator: Adobe Illustrator 19.0.1, SVG Export Plug-In . SVG Version: 6.00 Build 0)  -->
<svg version="1.1" xmlns="http://www.w3.org/2000/svg" xmlns:xlink="http://www.w3.org/1999/xlink" x="0px" y="0px"
	 viewBox="0 0 40.3 44.8" style="enable-background:new 0 0 40.3 44.8;" xml:space="preserve">
<style type="text/css">
	.st0{fill:#4A647F;}
	.st1{fill:#FFFFFF;}
	.st2{fill:none;stroke:#4A647F;stroke-miterlimit:10;}
	.st3{fill:#4B647F;}
	.st4{fill:none;stroke:#4B647F;stroke-miterlimit:10;}
	.st5{fill:#FFFFFF;stroke:#4B647F;stroke-miterlimit:10;}
</style>
<g id="Layer_3">
</g>
<g id="Layer_4">
</g>
<g id="Layer_8">
</g>
<g id="Layer_10">
</g>
<g id="Layer_11">
	<path class="st3" d="M20.1,18c1.1,0,2-0.9,2-2s-0.9-2-2-2s-2,0.9-2,2S19,18,20.1,18z M20.1,20c-1.1,0-2,0.9-2,2s0.9,2,2,2
		s2-0.9,2-2S21.2,20,20.1,20z M20.1,26c-1.1,0-2,0.9-2,2s0.9,2,2,2s2-0.9,2-2S21.2,26,20.1,26z"/>
</g>
<g id="Layer_14">
</g>
</svg>
