<?xml version="1.0" encoding="utf-8"?>
<!-- Generator: Adobe Illustrator 19.0.1, SVG Export Plug-In . SVG Version: 6.00 Build 0)  -->
<svg version="1.1" id="Layer_1" xmlns="http://www.w3.org/2000/svg" xmlns:xlink="http://www.w3.org/1999/xlink" x="0px" y="0px"
	 viewBox="0 0 562 560" style="enable-background:new 0 0 562 560;" xml:space="preserve">
<style type="text/css">
	.st0{fill:#FFFFFF;}
</style>
<g>
	<g id="XMLID_2_">
		<path id="XMLID_5_" class="st0" d="M539.4,59.8L539.4,59.8c-0.1,16.3-13.5,29.4-29.7,29.2l-121.5-1c-16.3-0.1-29.4-13.5-29.2-29.7
			v0c0.1-16.3,13.5-29.4,29.7-29.2l121.5,1C526.4,30.2,539.5,43.6,539.4,59.8z"/>
		<path id="XMLID_4_" class="st0" d="M508.7,210.6L508.7,210.6c-16.2-0.1-29.3-13.4-29.2-29.7l1-121.7C480.7,43,494,30,510.2,30.1h0
			c16.2,0.1,29.3,13.4,29.2,29.7l-1,121.7C538.2,197.7,525,210.7,508.7,210.6z"/>
		<path id="XMLID_3_" class="st0" d="M338.4,230.8L338.4,230.8c-10.9-10.9-10.9-28.6,0-39.5l106-106c10.9-10.9,28.6-10.9,39.5,0l0,0
			c10.9,10.9,10.9,28.6,0,39.5l-106,106C367,241.7,349.4,241.7,338.4,230.8z"/>
	</g>
	<g id="XMLID_14_">
		<path id="XMLID_17_" class="st0" d="M508.6,530.1L508.6,530.1c-16.3-0.1-29.4-13.5-29.2-29.7l1-121.5
			c0.1-16.3,13.5-29.4,29.7-29.2h0c16.3,0.1,29.4,13.5,29.2,29.7l-1,121.5C538.2,517.2,524.9,530.2,508.6,530.1z"/>
		<path id="XMLID_16_" class="st0" d="M357.9,499.4L357.9,499.4c0.1-16.2,13.4-29.3,29.7-29.2l121.7,1c16.2,0.1,29.3,13.4,29.2,29.7
			v0c-0.1,16.2-13.4,29.3-29.7,29.2l-121.7-1C370.8,529,357.7,515.7,357.9,499.4z"/>
		<path id="XMLID_15_" class="st0" d="M337.7,329.2L337.7,329.2c10.9-10.9,28.6-10.9,39.5,0l106,106c10.9,10.9,10.9,28.6,0,39.5l0,0
			c-10.9,10.9-28.6,10.9-39.5,0l-106-106C326.8,357.8,326.8,340.1,337.7,329.2z"/>
	</g>
	<g id="XMLID_1_">
		<path id="XMLID_12_" class="st0" d="M26.1,500.7L26.1,500.7c0-16.3,13.2-29.5,29.4-29.5l121.5-0.2c16.3,0,29.5,13.2,29.5,29.4v0
			c0,16.3-13.2,29.5-29.4,29.5l-121.5,0.2C39.3,530.1,26.1,516.9,26.1,500.7z"/>
		<path id="XMLID_11_" class="st0" d="M55.3,349.6L55.3,349.6c16.2,0,29.4,13.1,29.5,29.4l0.2,121.7c0,16.2-13.1,29.4-29.4,29.5h0
			c-16.2,0-29.4-13.1-29.5-29.4l-0.2-121.7C25.9,362.8,39,349.6,55.3,349.6z"/>
		<path id="XMLID_10_" class="st0" d="M225.3,327.7L225.3,327.7c11,10.8,11.2,28.5,0.4,39.5l-104.9,107c-10.8,11-28.5,11.2-39.5,0.4
			l0,0c-11-10.8-11.2-28.5-0.4-39.5l104.9-107C196.6,317.1,214.3,316.9,225.3,327.7z"/>
	</g>
	<g id="XMLID_13_">
		<path id="XMLID_20_" class="st0" d="M55.3,29.3L55.3,29.3c16.3,0,29.5,13.2,29.5,29.4l0.2,121.5c0,16.3-13.2,29.5-29.4,29.5h0
			c-16.3,0-29.5-13.2-29.5-29.4L25.9,58.8C25.9,42.5,39.1,29.3,55.3,29.3z"/>
		<path id="XMLID_19_" class="st0" d="M206.4,58.4L206.4,58.4c0,16.2-13.1,29.4-29.4,29.5L55.4,88.1c-16.2,0-29.4-13.1-29.5-29.4v0
			c0-16.2,13.1-29.4,29.4-29.5l121.7-0.2C193.2,29,206.4,42.2,206.4,58.4z"/>
		<path id="XMLID_18_" class="st0" d="M228.3,228.5L228.3,228.5c-10.8,11-28.5,11.2-39.5,0.4L81.7,124c-11-10.8-11.2-28.5-0.4-39.5
			l0,0c10.8-11,28.5-11.2,39.5-0.4l107,104.9C238.9,199.8,239.1,217.5,228.3,228.5z"/>
	</g>
</g>
</svg>
