<?xml version="1.0" encoding="utf-8"?>
<!-- Generator: Adobe Illustrator 19.0.1, SVG Export Plug-In . SVG Version: 6.00 Build 0)  -->
<svg version="1.1" id="Layer_1" xmlns="http://www.w3.org/2000/svg" xmlns:xlink="http://www.w3.org/1999/xlink" x="0px" y="0px"
	 viewBox="0 0 48 45" style="enable-background:new 0 0 48 45;" xml:space="preserve">
<path id="XMLID_4_" d="M36.8,21C36.8,21,36.8,21,36.8,21l-2.9-0.6c-0.2-0.8-0.5-1.6-0.9-2.3l1.7-2.3c0,0,0.4-0.7-0.1-1.3
	c-0.7-1.1-1.3-1.6-1.3-1.6c-0.2-0.2-1.4,0.5-1.4,0.5l-2.4,1.4c-0.7-0.4-1.4-0.9-2.2-1.1l-0.5-2.9c-0.1-0.5-0.5-0.9-1.1-0.9h-1.9h0
	c-0.3,0-0.9,0-1.1,0.2c-0.2,0.2-0.7,0.2-0.7,0.5c0,0,0,0,0,0l-0.2,2.9c-0.8,0.2-1.4,0.5-2.1,0.9l-2.9-1.7c-0.4-0.3-0.9-0.3-1.9,0.1
	c0,0,0,0,0,0c-0.6,0.5-0.7,1.3-0.7,1.3s0.2,1.2,0.4,1.4c0,0,0,0,0,0l1.7,2.4c-0.4,0.7-0.7,1.4-0.9,2.2l-3.2,0.5
	c-0.5,0.1-1.3,0.5-1.3,1.1c0,0,0,0,0,0v1.9v0c0,0.3,0.5,0.6,0.6,0.8c0.2,0.2,0.5,0.3,0.8,0.3c0,0,0.1,0,0.1,0l3,0.5
	c0.2,0.8,0.5,1.5,0.9,2.2L14.7,30c-0.3,0.4,0.1,1.5,0.1,1.5c0.6,0.6,0.9,0.8,1.3,1.2c0,0,0-0.1,0-0.1c0.2,0.2,0.5,0.3,0.7,0.3
	c0.3,0,0.5-0.1,0.7-0.2c0,0,0,0,0,0L20,31c0.7,0.4,1.4,0.7,2.2,0.9l0.5,3c0.1,0.5,0.5,1.1,1.1,1.1c0,0,0,0,0,0h1.9h0
	c0.3,0,0.4-1,0.4-1.2c0,0,0,0,0,0l0.8-2.9c0.8-0.2,1.7-0.5,2.4-0.9l2.5,1.7c0.4,0.3,1.1,0.3,1.5-0.1c0.4-0.4,0.9-0.9,1.3-1.3
	c0,0,0,0,0,0c0.2-0.2,0.3-0.5,0.3-0.7c0-0.3-0.1-0.5-0.2-0.7c0,0,0,0,0,0l-1.7-2.4c0.4-0.7,0.7-1.4,0.9-2.2l2.6-0.5
	c0.5-0.1,0.6-0.5,0.6-1.1v-1.9v0C37,21.5,37,22,36.8,21z M25.2,29c-3.7,0-5.8-2.6-6.2-5.5c-0.4-3.2,1.9-6.1,5.1-6.5
	c0.2,0,0.4-0.1,0.5-0.1c0,0,0,0,0,0c2.9,0,5.5,2.4,5.8,5.4C30.8,25.5,28.2,29,25.2,29z"/>
</svg>
