<?xml version="1.0" encoding="utf-8"?>
<!-- Generator: Adobe Illustrator 19.0.1, SVG Export Plug-In . SVG Version: 6.00 Build 0)  -->
<svg version="1.1" id="Layer_1" xmlns="http://www.w3.org/2000/svg" xmlns:xlink="http://www.w3.org/1999/xlink" x="0px" y="0px"
	 viewBox="-50 340.5 500 500" style="enable-background:new -50 340.5 500 500;" xml:space="preserve">
<style type="text/css">
	.st0{fill:#FFFFFF;}
	.st1{fill:none;stroke:#FFFFFF;stroke-miterlimit:10;}
	.st2{fill:#EC2227;}
	.st3{opacity:0.1;}
	.st4{fill:none;stroke:#000000;stroke-miterlimit:10;}
</style>
<g class="st3">
	<g>
		<path d="M-3.8,445.1c16,0,29,13,29,29c0,16-13,29-29,29c-16,0-29-13-29-29C-32.8,458.1-19.7,445.1-3.8,445.1 M-3.8,444.1
			c-16.6,0-30,13.4-30,30c0,16.6,13.4,30,30,30s30-13.4,30-30C26.3,457.5,12.8,444.1-3.8,444.1L-3.8,444.1z"/>
	</g>
	<g>
		<path d="M403.8,445.1c16,0,29,13,29,29c0,16-13,29-29,29c-16,0-29-13-29-29C374.8,458.1,387.8,445.1,403.8,445.1 M403.8,444.1
			c-16.6,0-30,13.4-30,30c0,16.6,13.4,30,30,30c16.6,0,30-13.4,30-30C433.8,457.5,420.3,444.1,403.8,444.1L403.8,444.1z"/>
	</g>
	<g>
		<path d="M403.8,677.9c16,0,29,13,29,29c0,16-13,29-29,29c-16,0-29-13-29-29C374.8,690.9,387.8,677.9,403.8,677.9 M403.8,676.9
			c-16.6,0-30,13.4-30,30c0,16.6,13.4,30,30,30c16.6,0,30-13.4,30-30C433.8,690.4,420.3,676.9,403.8,676.9L403.8,676.9z"/>
	</g>
	<g>
		<path d="M200,781.5c16,0,29,13,29,29s-13,29-29,29s-29-13-29-29S184,781.5,200,781.5 M200,780.5c-16.6,0-30,13.4-30,30
			s13.4,30,30,30c16.6,0,30-13.4,30-30S216.6,780.5,200,780.5L200,780.5z"/>
	</g>
	<g>
		<path d="M200,341.5c16,0,29,13,29,29s-13,29-29,29s-29-13-29-29S184,341.5,200,341.5 M200,340.5c-16.6,0-30,13.4-30,30
			s13.4,30,30,30c16.6,0,30-13.4,30-30S216.6,340.5,200,340.5L200,340.5z"/>
	</g>
	<g>
		<path d="M200,461.7l112.8,64.4v128.8L200,719.3L87.3,654.9V526.1L200,461.7 M200,460.5l-113.8,65v130l113.8,65l113.8-65v-130
			L200,460.5L200,460.5z"/>
	</g>
	<line class="st4" x1="200" y1="463.6" x2="200" y2="400.5"/>
	<line class="st4" x1="200" y1="780.5" x2="200" y2="720.5"/>
	<line class="st4" x1="86.3" y1="525.5" x2="21.3" y2="488.4"/>
	<line class="st4" x1="378.8" y1="692.6" x2="313.8" y2="655.5"/>
	<g>
		<path d="M-3.8,677.9c16,0,29,13,29,29c0,16-13,29-29,29c-16,0-29-13-29-29C-32.8,690.9-19.7,677.9-3.8,677.9 M-3.8,676.9
			c-16.6,0-30,13.4-30,30c0,16.6,13.4,30,30,30s30-13.4,30-30C26.3,690.4,12.8,676.9-3.8,676.9L-3.8,676.9z"/>
	</g>
	<line class="st4" x1="86.3" y1="655.5" x2="21.3" y2="692.6"/>
	<line class="st4" x1="378.8" y1="488.4" x2="313.8" y2="525.5"/>
	<g>
		<path d="M200,544.4c17.8,0,35,3.7,51.2,10.9c5,2.2,9.8,4.7,14.3,7.5c0.3,3.3,0.4,6.3,0.4,9.1c0,42-25.3,80.4-66,100.3
			c-40.7-19.9-66-58.3-66-100.3c0-2.8,0.1-5.8,0.5-9.1c4.5-2.8,9.3-5.3,14.3-7.5C165,548.1,182.2,544.4,200,544.4 M200,543.4
			c-18.4,0-35.9,3.9-51.6,11c-5.1,2.3-10.1,4.9-14.9,7.8c-0.3,3.2-0.5,6.4-0.5,9.7c0,44,27.2,82.1,67,101.4
			c39.8-19.3,67-57.4,67-101.4c0-3.3-0.2-6.5-0.5-9.7c-4.8-2.9-9.7-5.5-14.9-7.8C235.9,547.4,218.4,543.4,200,543.4L200,543.4z"/>
	</g>
	<g>
		<path class="st4" d="M244.8,552.5c0-24.8-20.1-44.8-44.8-44.8c-24.8,0-44.8,20.1-44.8,44.8"/>
	</g>
	<g>
		<path d="M200,562.4c-19.3,0-34.9,15.6-34.9,34.9c0,19.3,15.6,34.9,34.9,34.9s34.9-15.6,34.9-34.9
			C234.9,578.1,219.3,562.4,200,562.4z M189.1,617.2l7.1-20.7c-3.6-1.5-6.1-5.1-6.1-9.2c0-5.5,4.5-10,10-10c5.5,0,10,4.5,10,10
			c0,4.1-2.5,7.7-6.1,9.2l7.1,20.7H189.1z"/>
	</g>
</g>
</svg>
