<?xml version="1.0" encoding="utf-8"?>
<!-- Generator: Adobe Illustrator 19.0.1, SVG Export Plug-In . SVG Version: 6.00 Build 0)  -->
<svg version="1.1" id="Layer_1" xmlns="http://www.w3.org/2000/svg" xmlns:xlink="http://www.w3.org/1999/xlink" x="0px" y="0px"
	 viewBox="0 0 52 52" style="enable-background:new 0 0 52 52;" xml:space="preserve">
<style type="text/css">
	.st0{fill:none;stroke:#FFFFFF;stroke-miterlimit:10;}
	.st1{fill:#FFFFFF;}
	.st2{fill:#EE2427;}
	.st3{fill:none;stroke:#4B647F;stroke-miterlimit:10;}
	.st4{fill:#4B647F;}
	.st5{fill:#EB272A;}
</style>
<g>
	<g>
		<path class="st4" d="M5.6,12.4c1.1,0,2,0.9,2,2c0,1.1-0.9,2-2,2s-2-0.9-2-2C3.6,13.3,4.5,12.4,5.6,12.4 M5.6,11.4
			c-1.7,0-3,1.3-3,3c0,1.7,1.3,3,3,3s3-1.3,3-3C8.6,12.7,7.3,11.4,5.6,11.4L5.6,11.4z"/>
	</g>
</g>
<g>
	<g>
		<path class="st4" d="M46.4,12.4c1.1,0,2,0.9,2,2c0,1.1-0.9,2-2,2s-2-0.9-2-2C44.4,13.3,45.3,12.4,46.4,12.4 M46.4,11.4
			c-1.7,0-3,1.3-3,3c0,1.7,1.3,3,3,3s3-1.3,3-3C49.4,12.7,48,11.4,46.4,11.4L46.4,11.4z"/>
	</g>
</g>
<g>
	<g>
		<path class="st4" d="M46.4,35.6c1.1,0,2,0.9,2,2c0,1.1-0.9,2-2,2s-2-0.9-2-2C44.4,36.5,45.3,35.6,46.4,35.6 M46.4,34.6
			c-1.7,0-3,1.3-3,3c0,1.7,1.3,3,3,3s3-1.3,3-3C49.4,36,48,34.6,46.4,34.6L46.4,34.6z"/>
	</g>
</g>
<g>
	<g>
		<path class="st4" d="M26,46c1.1,0,2,0.9,2,2s-0.9,2-2,2s-2-0.9-2-2S24.9,46,26,46 M26,45c-1.7,0-3,1.3-3,3s1.3,3,3,3s3-1.3,3-3
			S27.7,45,26,45L26,45z"/>
	</g>
</g>
<g>
	<g>
		<path class="st4" d="M26,2c1.1,0,2,0.9,2,2s-0.9,2-2,2s-2-0.9-2-2S24.9,2,26,2 M26,1c-1.7,0-3,1.3-3,3s1.3,3,3,3s3-1.3,3-3
			S27.7,1,26,1L26,1z"/>
	</g>
</g>
<g>
	<g>
		<path class="st4" d="M26,14.2l10.4,5.9v11.8L26,37.8l-10.4-5.9V20.1L26,14.2 M26,13l-11.4,6.5v13L26,39l11.4-6.5v-13L26,13L26,13z
			"/>
	</g>
</g>
<line class="st3" x1="26" y1="13.3" x2="26" y2="6.8"/>
<line class="st3" x1="26" y1="45.5" x2="26" y2="39"/>
<line class="st3" x1="14.6" y1="19.5" x2="8.1" y2="15.8"/>
<line class="st3" x1="43.9" y1="36.2" x2="37.4" y2="32.5"/>
<g>
	<g>
		<path class="st4" d="M5.6,35.6c1.1,0,2,0.9,2,2c0,1.1-0.9,2-2,2s-2-0.9-2-2C3.6,36.5,4.5,35.6,5.6,35.6 M5.6,34.6
			c-1.7,0-3,1.3-3,3c0,1.7,1.3,3,3,3s3-1.3,3-3C8.6,36,7.3,34.6,5.6,34.6L5.6,34.6z"/>
	</g>
</g>
<line class="st3" x1="14.6" y1="32.5" x2="8.1" y2="36.2"/>
<line class="st3" x1="43.9" y1="15.8" x2="37.4" y2="19.5"/>
<g>
	<g>
		<path class="st4" d="M26,22.3c1.7,0,3.3,0.3,4.8,1c0.3,0.1,0.6,0.3,0.9,0.5c0,0.1,0,0.3,0,0.4c0,3.7-2.2,7.1-5.7,9
			c-3.5-1.9-5.7-5.3-5.7-9c0-0.1,0-0.2,0-0.4c0.3-0.2,0.6-0.3,0.9-0.5C22.7,22.6,24.3,22.3,26,22.3 M26,21.3c-1.8,0-3.6,0.4-5.2,1.1
			c-0.5,0.2-1,0.5-1.5,0.8c0,0.3,0,0.6,0,1c0,4.4,2.7,8.2,6.7,10.1c4-1.9,6.7-5.7,6.7-10.1c0-0.3,0-0.7,0-1c-0.5-0.3-1-0.6-1.5-0.8
			C29.6,21.7,27.8,21.3,26,21.3L26,21.3z"/>
	</g>
</g>
<g>
	<path class="st3" d="M30.5,22.2c0-2.5-2-4.5-4.5-4.5s-4.5,2-4.5,4.5v0.3"/>
</g>
<circle class="st4" cx="26" cy="26.7" r="3.5"/>
<path class="st1" d="M27.1,28.7l-0.7-2.1c0.4-0.2,0.6-0.5,0.6-0.9c0-0.6-0.4-1-1-1s-1,0.4-1,1c0,0.4,0.3,0.8,0.6,0.9l-0.7,2.1H27.1z
	"/>
</svg>
