<?xml version="1.0" encoding="utf-8"?>
<!-- Generator: Adobe Illustrator 19.0.1, SVG Export Plug-In . SVG Version: 6.00 Build 0)  -->
<svg version="1.1" id="Layer_1" xmlns="http://www.w3.org/2000/svg" xmlns:xlink="http://www.w3.org/1999/xlink" x="0px" y="0px"
	 viewBox="0 0 45 44" style="enable-background:new 0 0 45 44;" xml:space="preserve">
<style type="text/css">
	.st0{fill:#FFFFFF;}
	.st1{fill:#BBBBBB;}
</style>
<g id="XMLID_940_">
	<path class="st0" d="M23,34.3c-3.6,0-6.9-1.4-9.4-3.9S9.7,24.6,9.7,21c0-3.6,1.4-6.9,3.9-9.4s5.9-3.9,9.4-3.9
		c3.6,0,6.9,1.4,9.4,3.9c2.5,2.5,3.9,5.9,3.9,9.4c0,3.6-1.4,6.9-3.9,9.4C29.9,32.9,26.6,34.3,23,34.3z"/>
	<path class="st1" d="M23,8.2c3.3,0,6.6,1.2,9,3.7c5,5,5,13.1,0,18.1c-2.5,2.5-5.8,3.7-9,3.7s-6.6-1.2-9-3.7C9,25.1,9,17,14,12
		C16.4,9.5,19.7,8.2,23,8.2 M23,7.2c-3.7,0-7.2,1.4-9.8,4c-5.4,5.4-5.4,14.1,0,19.5c2.6,2.6,6.1,4,9.8,4c3.7,0,7.2-1.4,9.8-4
		c2.6-2.6,4-6.1,4-9.8s-1.4-7.2-4-9.8C30.2,8.7,26.7,7.2,23,7.2L23,7.2z"/>
</g>
</svg>
