<?xml version="1.0" encoding="utf-8"?>
<!-- Generator: Adobe Illustrator 19.0.1, SVG Export Plug-In . SVG Version: 6.00 Build 0)  -->
<svg version="1.1" id="Layer_1" xmlns="http://www.w3.org/2000/svg" xmlns:xlink="http://www.w3.org/1999/xlink" x="0px" y="0px"
	 viewBox="0 0 48 45" style="enable-background:new 0 0 48 45;" xml:space="preserve">
<style type="text/css">
	.st0{fill:none;stroke:#cd040b;stroke-miterlimit:10;}
</style>
<path id="XMLID_1179_" class="st0" d="M37.5,21.1c-0.2-0.2-0.1,0.4-0.3-0.6c0,0,0,0,0,0l-2.9-0.2c-0.2-0.8-0.5-1.4-0.9-2.1l1.7-2.3
	c0.3-0.4,0.3-1.4-0.1-1.4c0,0,0,0,0,0c-0.4,0-0.9-0.9-1.3-1.3c0,0,0,0,0,0c-0.2-0.2-0.5-0.1-0.7-0.1c-0.3,0-0.5-0.6-0.7,0.4
	c0,0,0,0,0,0L29.8,15c-0.7-0.4-1.4-0.8-2.2-1l-0.5-3.2c-0.1-0.5-0.5-1.2-1.1-1.2h-1.9h0c-0.3,0-0.9,0.4-1.1,0.6
	c-0.2,0.2-0.6,0.6-0.6,0.9c0,0,0,0,0,0l-0.2,2.9c-0.8,0.2-1.4,0.5-2.1,0.9l-2.9-1.7c-0.4-0.3-0.9-0.3-1.9,0.1c0,0,0,0,0,0
	c0,0.4-0.3,0.9-0.8,1.3c0,0,0.3,0,0.3,0c-0.2,0.2-0.2,0.5-0.2,0.8c0,0.3,0.1,0.5,0.3,0.7c0,0,0,0,0,0l1.7,2.4
	c-0.4,0.7-0.7,1.4-0.9,2.2L12.7,21c-0.5,0.1-1.2,0.5-1.2,1.1c0,0,0,0,0,0V24v0c0,0.3,0.4,0.6,0.6,0.8c0.2,0.2,0.5,0.3,0.8,0.3
	c0,0,0.1,0,0.1,0l3,0.5c0.2,0.8,0.5,1.5,0.9,2.2l-1.7,2.4c-0.3,0.4-0.3,1.4,0.1,1.4c0,0,0,0,0,0c0.4,0,0.9,0.9,1.3,1.3c0,0,0,0,0,0
	c0.2,0.2,0.5,0.3,0.7,0.3c0.3,0,0.5-0.1,0.7-0.2c0,0,0,0,0,0l2.4-1.7c0.7,0.4,1.4,0.7,2.2,0.9l0.5,2.6c0.1,0.5,0.5,0.7,1.1,0.7
	c0,0,0,0,0,0H26h0c0.3,0,0.3,0.1,0.4,0c0.2-0.2,0-0.1,0-0.3c0,0,0,0,0,0l0.8-2.9c0.8-0.2,1.7-0.5,2.4-0.9l2.5,1.7
	c0.4,0.3,1.1,0.3,1.5-0.1c0.4-0.4,0.9-0.9,1.3-1.3c0,0,0,0,0,0c0.2-0.2,0.3-0.5,0.3-0.7c0-0.3-0.1-0.5-0.2-0.7c0,0,0,0,0,0l-1.7-2.4
	c0.4-0.7,0.7-1.4,0.9-2.2l2.6-0.5c0.5-0.1,0.6-0.5,0.6-1.1v-1.9v0C37.5,21.8,37.7,21.3,37.5,21.1z M25.8,28.5L25.8,28.5L25.8,28.5
	c0,0,0,0.2,0,0.2c-3.2,0.4-6.1-1.8-6.4-5c-0.4-3.2,1.9-6,5.1-6.4c0.2,0,0.4,0,0.5,0c0,0,0,0,0,0c2.9,0,5.5,2,5.8,5
	C31.3,25.4,29,28.5,25.8,28.5z"/>
</svg>
