<?xml version="1.0" encoding="utf-8"?>
<!-- Generator: Adobe Illustrator 19.0.1, SVG Export Plug-In . SVG Version: 6.00 Build 0)  -->
<svg version="1.1" id="Layer_1" xmlns="http://www.w3.org/2000/svg" xmlns:xlink="http://www.w3.org/1999/xlink" x="0px" y="0px"
	 viewBox="0 0 60.3 58.5" style="enable-background:new 0 0 60.3 58.5;" xml:space="preserve">
<style type="text/css">
	.st0{opacity:5.000000e-002;}
	.st1{fill:none;stroke:#231F20;stroke-miterlimit:10;}
	.st2{fill:none;stroke:#FFFFFF;stroke-miterlimit:10;}
	.st3{fill:#FFFFFF;stroke:#FFFFFF;stroke-width:1.8685;stroke-miterlimit:10;}
	.st4{fill:#D60D18;}
</style>
<g id="XMLID_110_">
	<path id="XMLID_428_" class="st2" d="M30,54.4c-13.8,0-25-11.2-25-25c0-13.8,11.2-25,25-25c13.8,0,25,11.2,25,25
		C55,43.2,43.8,54.4,30,54.4z"/>
	<line id="XMLID_113_" class="st2" x1="30" y1="4.4" x2="30" y2="54.4"/>
	<path id="XMLID_425_" class="st2" d="M30,54.4c-8.3,0-15-11.2-15-25c0-13.8,6.7-25,15-25s15,11.2,15,25C45,43.2,38.3,54.4,30,54.4z
		"/>
	<line id="XMLID_426_" class="st2" x1="8.5" y1="17.8" x2="51.5" y2="17.8"/>
	<line id="XMLID_429_" class="st2" x1="5" y1="29.4" x2="55" y2="29.4"/>
	<line id="XMLID_894_" class="st2" x1="8.5" y1="41" x2="51.5" y2="41"/>
	<g id="XMLID_132_">
		<path id="XMLID_906_" class="st3" d="M30.3,19.9C27.5,22.8,20,23.7,20,23.7c-0.2,1-0.2,2-0.2,3.1c0,7.7,4.3,14.3,10.6,17.7
			C36.7,41,41,34.4,41,26.7c0-1-0.1-2.1-0.2-3.1C40.8,23.7,33.5,22.7,30.3,19.9L30.3,19.9z"/>
	</g>
	<g id="XMLID_902_">
		<path id="XMLID_207_" class="st4" d="M31.7,30.6l1.6-4.4h-4.5l-1.2,6.3h2.2l-1.5,6.7l0,0l5.8-8.7H31.7z"/>
	</g>
</g>
</svg>
