<?xml version="1.0" encoding="utf-8"?>
<!-- Generator: Adobe Illustrator 19.0.1, SVG Export Plug-In . SVG Version: 6.00 Build 0)  -->
<svg version="1.1" id="Layer_1" xmlns="http://www.w3.org/2000/svg" xmlns:xlink="http://www.w3.org/1999/xlink" x="0px" y="0px"
	 viewBox="0 0 500 500" style="enable-background:new 0 0 500 500;" xml:space="preserve">
<style type="text/css">
	.st0{fill:#4B647F;}
	.st1{fill:#E92529;}
	.st2{fill:none;stroke:#4B647F;stroke-miterlimit:10;}
	.st3{fill:none;stroke:#FFFFFF;stroke-linecap:round;stroke-miterlimit:10;}
	.st4{fill:none;stroke:#FFFFFF;stroke-miterlimit:10;}
	.st5{fill:#67BE62;}
	.st6{fill:none;stroke:#D72027;stroke-width:2;stroke-miterlimit:10;}
	.st7{fill:none;stroke:#4B647F;stroke-width:0.8966;stroke-miterlimit:10;}
	.st8{fill:none;stroke:#4B647F;stroke-width:0.926;stroke-miterlimit:10;}
	.st9{fill:#FFFFFF;}
	.st10{fill:#151415;}
	.st11{fill:#EB2427;}
	.st12{fill:url(#XMLID_226_);}
	.st13{opacity:0.15;fill:url(#XMLID_227_);}
	.st14{fill:none;}
	.st15{font-family:'OpenSans-Light';}
	.st16{font-size:16px;}
	.st17{fill:url(#XMLID_228_);}
	.st18{fill:none;stroke:#FFFFFF;stroke-width:1.5857;stroke-miterlimit:10;}
	.st19{fill:#EE2427;}
	.st20{fill:url(#SVGID_1_);}
	.st21{opacity:0.6;}
	.st22{fill:url(#SVGID_2_);}
	.st23{opacity:0.1;clip-path:url(#XMLID_331_);}
	.st24{fill:none;stroke:#000000;stroke-miterlimit:10;}
	.st25{fill:none;stroke:#FFFFFF;stroke-width:0.7419;stroke-miterlimit:10;}
	.st26{fill:none;stroke:#FFFFFF;stroke-width:2;stroke-linecap:round;stroke-miterlimit:10;}
	.st27{opacity:0.5;fill:none;stroke:#FFFFFF;stroke-width:2;stroke-miterlimit:10;}
	.st28{fill:none;stroke:#010101;stroke-miterlimit:10;}
	.st29{fill:url(#XMLID_348_);}
	.st30{opacity:0.15;fill:url(#XMLID_349_);}
	.st31{fill:url(#XMLID_351_);}
	.st32{fill:url(#SVGID_3_);}
	.st33{fill:url(#SVGID_4_);}
	.st34{opacity:0.1;clip-path:url(#XMLID_353_);}
	.st35{fill:url(#XMLID_356_);}
	.st36{opacity:0.15;fill:url(#XMLID_357_);}
	.st37{fill:url(#XMLID_358_);}
	.st38{fill:url(#SVGID_5_);}
	.st39{fill:url(#SVGID_6_);}
	.st40{opacity:0.1;}
	.st41{opacity:0.1;fill:none;}
</style>
<rect id="XMLID_119_" x="64.8" y="-63.6" class="st14" width="257.6" height="69.8"/>
<text id="XMLID_4693_" transform="matrix(1 0 0 1 94.981 -51.4243)" class="st9 st15 st16">Dedicated Internet Services</text>
<rect id="XMLID_117_" x="319.9" y="-63.6" class="st14" width="257.6" height="69.8"/>
<text id="XMLID_4691_" transform="matrix(1 0 0 1 353.0752 -51.4243)" class="st9 st15 st16">Secure Cloud Interconnect</text>
<rect id="XMLID_397_" x="-191.4" y="-63.6" class="st14" width="257.6" height="69.8"/>
<text id="XMLID_396_" transform="matrix(1 0 0 1 -137.6514 -51.4243)" class="st9 st15 st16">Business Connection</text>
<g class="st40">
	<g>
		<path d="M346.2,14.1c40.8,0,79.2,15.9,108.1,44.8C483.1,87.8,499,126.2,499,167c0,17.6-3,34.8-8.8,51.1
			c-5.6,15.8-13.8,30.5-24.3,43.8c-21,26.4-50.6,45.3-83.2,53.4l-0.7,0.2l-0.1,0.7c-8.9,72.1-56.3,135.5-126.7,169.6
			c-68.7-33.4-115.8-95-126.1-165.1l-0.1-0.9h-0.9h-22.4C48,319.8,1,272.8,1,215.1c0-57.8,47-104.8,104.8-104.8
			c3.3,0,6.6,0.2,10.2,0.5l1.2,0.1l-0.1-1.2c-0.4-3.7-0.6-6.9-0.6-10c0-47.2,38.4-85.5,85.5-85.5c22.5,0,43.8,8.7,59.9,24.5l0.6,0.6
			l0.7-0.4C287.9,22.7,316.6,14.1,346.2,14.1 M346.2,13.1c-30.9,0-59.5,9.2-83.6,24.8c-15.6-15.3-37-24.8-60.6-24.8
			c-47.8,0-86.5,38.7-86.5,86.5c0,3.4,0.3,6.8,0.6,10.1c-3.4-0.3-6.8-0.5-10.3-0.5C47.4,109.3,0,156.6,0,215.1
			c0,58.4,47.4,105.8,105.8,105.8h22.4c10.6,72.2,59.3,133.3,127.1,166c69.2-33.4,118.5-96.5,127.6-170.6
			C450.1,299.7,500,239.3,500,167C500,82,431.1,13.1,346.2,13.1L346.2,13.1z"/>
	</g>
	<g>
		<g>
			<path d="M255.3,237.1c34.5,0,67.9,7.1,99.3,21.1c9.8,4.4,19.3,9.3,28.1,14.8c0.6,6.5,0.9,12.5,0.9,18.1
				c0,40.8-12.3,80.6-35.7,115.2c-22.6,33.5-54.6,60.9-92.7,79.4c-38-18.5-70.1-45.9-92.7-79.4c-23.3-34.6-35.7-74.4-35.7-115.2
				c0-5.6,0.3-11.6,0.9-18.2c8.9-5.4,18.3-10.4,28.1-14.8C187.4,244.2,220.8,237.1,255.3,237.1 M253.6,408.4
				c37.7,0,68.3-30.6,68.3-68.3s-30.6-68.3-68.3-68.3c-37.7,0-68.3,30.6-68.3,68.3S215.9,408.4,253.6,408.4 M255.3,236.1
				c-35.5,0-69.2,7.6-99.7,21.2c-9.9,4.4-19.5,9.5-28.7,15.1c-0.6,6.2-1,12.4-1,18.7c0,84.9,52.4,158.6,129.3,195.7
				c76.9-37.2,129.3-110.8,129.3-195.7c0-6.3-0.4-12.6-1-18.7c-9.2-5.7-18.8-10.7-28.7-15.1C324.5,243.7,290.8,236.1,255.3,236.1
				L255.3,236.1z M253.6,407.4c-37.2,0-67.3-30.1-67.3-67.3c0-37.2,30.1-67.3,67.3-67.3c37.2,0,67.3,30.1,67.3,67.3
				C320.9,377.2,290.8,407.4,253.6,407.4L253.6,407.4z"/>
		</g>
	</g>
	<g>
		<path d="M253.6,272.8c-37.2,0-67.3,30.1-67.3,67.3s30.1,67.3,67.3,67.3c37.2,0,67.3-30.1,67.3-67.3S290.8,272.8,253.6,272.8z
			 M234.4,378.5l13.6-40c-6.9-2.9-11.7-9.8-11.7-17.7c0-10.6,8.6-19.2,19.2-19.2c10.6,0,19.2,8.6,19.2,19.2c0,8-4.8,14.8-11.7,17.7
			l13.6,40H234.4z"/>
	</g>
	<g>
		<path class="st24" d="M341.8,251.9c-0.9-47-39.3-84.9-86.5-84.9c-47.2,0-85.6,37.9-86.5,84.9"/>
	</g>
</g>
</svg>
