<?xml version="1.0" encoding="utf-8"?>
<!-- Generator: Adobe Illustrator 19.0.1, SVG Export Plug-In . SVG Version: 6.00 Build 0)  -->
<svg version="1.1" id="Layer_1" xmlns="http://www.w3.org/2000/svg" xmlns:xlink="http://www.w3.org/1999/xlink" x="0px" y="0px"
	 viewBox="0 0 52 52" style="enable-background:new 0 0 52 52;" xml:space="preserve">
<style type="text/css">
	.st0{fill:none;stroke:#FFFFFF;stroke-miterlimit:10;}
	.st1{fill:#FFFFFF;}
	.st2{fill:#EE2427;}
	.st3{fill:none;stroke:#4B647F;stroke-miterlimit:10;}
	.st4{fill:#4B647F;}
	.st5{fill:#EB272A;}
</style>
<g>
	<g>
		<g>
			<path class="st4" d="M35.6,3.3C43.5,3.3,50,9.8,50,17.7c0,6.6-4.5,12.4-10.9,14l-0.7,0.2l-0.1,0.7c-0.8,6.8-5.2,12.7-11.8,16.1
				c-6.4-3.2-10.8-9.1-11.7-15.6l-0.1-0.9h-0.9h-2.2c-5.3,0-9.6-4.3-9.6-9.6c0-5.3,4.3-9.6,9.6-9.6c0.3,0,0.6,0,0.9,0l1.2,0.1
				l-0.1-1.2c0-0.3-0.1-0.6-0.1-0.9c0-4.2,3.4-7.7,7.7-7.7c2,0,3.9,0.8,5.4,2.2l0.6,0.6l0.7-0.4C30.1,4.1,32.8,3.3,35.6,3.3
				 M35.6,2.3c-3.1,0-6,0.9-8.4,2.5c-1.6-1.5-3.7-2.5-6.1-2.5c-4.8,0-8.7,3.9-8.7,8.7c0,0.3,0,0.7,0.1,1c-0.3,0-0.7-0.1-1-0.1
				C5.7,11.9,1,16.7,1,22.5s4.7,10.6,10.6,10.6h2.2c1.1,7.2,5.9,13.3,12.7,16.6c6.9-3.3,11.8-9.6,12.8-17.1C46,31,51,24.9,51,17.7
				C51,9.2,44.1,2.3,35.6,2.3L35.6,2.3z"/>
		</g>
	</g>
	<g>
		<g>
			<path class="st4" d="M26.5,25.6c3.3,0,6.5,0.7,9.6,2c0.8,0.4,1.6,0.8,2.3,1.2c0,0.5,0,0.9,0,1.3c0,7.7-4.6,14.7-11.9,18.5
				c-7.4-3.7-11.9-10.8-11.9-18.5c0-0.4,0-0.8,0.1-1.3c0.7-0.4,1.5-0.8,2.3-1.2C20,26.3,23.2,25.6,26.5,25.6 M26.5,24.6
				c-3.6,0-6.9,0.8-10,2.1c-1,0.4-2,0.9-2.9,1.5c-0.1,0.6-0.1,1.2-0.1,1.9c0,8.5,5.2,15.9,12.9,19.6c7.7-3.7,12.9-11.1,12.9-19.6
				c0-0.6,0-1.3-0.1-1.9c-0.9-0.6-1.9-1.1-2.9-1.5C33.5,25.4,30.1,24.6,26.5,24.6L26.5,24.6z"/>
		</g>
	</g>
	<circle class="st4" cx="26.4" cy="35" r="6.7"/>
	<path class="st1" d="M28.7,38.9l-1.4-4c0.7-0.3,1.2-1,1.2-1.8c0-1.1-0.9-1.9-1.9-1.9c-1.1,0-1.9,0.9-1.9,1.9c0,0.8,0.5,1.5,1.2,1.8
		l-1.4,4H28.7z"/>
	<g>
		<path class="st3" d="M35.2,26.4c0-4.8-3.9-8.7-8.7-8.7c-4.8,0-8.7,3.9-8.7,8.7v0.5"/>
	</g>
</g>
</svg>
