<?xml version="1.0" encoding="utf-8"?>
<!-- Generator: Adobe Illustrator 15.0.2, SVG Export Plug-In . SVG Version: 6.00 Build 0)  -->
<!DOCTYPE svg PUBLIC "-//W3C//DTD SVG 1.1//EN" "http://www.w3.org/Graphics/SVG/1.1/DTD/svg11.dtd">
<svg version="1.1" id="Layer_1" xmlns="http://www.w3.org/2000/svg" xmlns:xlink="http://www.w3.org/1999/xlink" x="0px" y="0px"
	 width="40px" height="40px" viewBox="0 0 40 40" enable-background="new 0 0 40 40" xml:space="preserve">
<circle fill="none" stroke="#FFFFFF" stroke-width="1.3" stroke-miterlimit="10" cx="20" cy="20" r="17.5"/>
<g>
	<path fill="#FFFFFF" d="M28.432,18.27c-0.74-1.281-0.295-2.922,0.992-3.668l-1.385-2.398c-0.396,0.231-0.855,0.365-1.346,0.365
		c-1.482,0-2.682-1.208-2.682-2.698h-2.768c0.002,0.459-0.113,0.927-0.361,1.353c-0.738,1.281-2.383,1.715-3.672,0.973l-1.385,2.4
		c0.398,0.227,0.744,0.559,0.988,0.983c0.74,1.279,0.297,2.917-0.986,3.663l1.385,2.4c0.396-0.23,0.852-0.361,1.342-0.361
		c1.475,0,2.672,1.2,2.68,2.684h2.77c-0.002-0.457,0.113-0.916,0.357-1.339c0.738-1.278,2.379-1.714,3.668-0.978l1.385-2.398
		C29.018,19.023,28.676,18.692,28.432,18.27 M22.625,19.771c-1.574,0-2.854-1.277-2.854-2.854c0-1.576,1.277-2.854,2.854-2.854
		s2.855,1.277,2.855,2.854C25.48,18.494,24.203,19.771,22.625,19.771"/>
	<path fill="#FFFFFF" d="M18.529,26.539c-0.465-0.809-0.186-1.844,0.625-2.314l-0.873-1.512c-0.248,0.146-0.539,0.229-0.85,0.229
		c-0.932,0-1.689-0.761-1.689-1.7h-1.746c0.002,0.289-0.072,0.584-0.229,0.852c-0.465,0.809-1.502,1.082-2.314,0.614l-0.875,1.514
		c0.252,0.142,0.471,0.352,0.623,0.62c0.469,0.807,0.189,1.84-0.621,2.311l0.873,1.514c0.25-0.146,0.539-0.229,0.848-0.229
		c0.93,0,1.684,0.758,1.689,1.693h1.748c-0.004-0.288,0.07-0.578,0.225-0.845c0.465-0.807,1.5-1.081,2.312-0.616l0.875-1.513
		C18.898,27.014,18.682,26.805,18.529,26.539 M14.867,27.486c-0.994,0-1.799-0.807-1.799-1.801s0.805-1.799,1.799-1.799
		s1.801,0.805,1.801,1.799S15.861,27.486,14.867,27.486"/>
</g>
</svg>
