<?xml version="1.0" encoding="utf-8"?>
<!-- Generator: Adobe Illustrator 15.0.2, SVG Export Plug-In . SVG Version: 6.00 Build 0)  -->
<!DOCTYPE svg PUBLIC "-//W3C//DTD SVG 1.1//EN" "http://www.w3.org/Graphics/SVG/1.1/DTD/svg11.dtd">
<svg version="1.1" id="Layer_1" xmlns="http://www.w3.org/2000/svg" xmlns:xlink="http://www.w3.org/1999/xlink" x="0px" y="0px"
	 width="40px" height="40px" viewBox="0 0 40 40" enable-background="new 0 0 40 40" xml:space="preserve">
<circle fill="none" stroke="#4E657D" stroke-width="1.3" stroke-miterlimit="10" cx="20" cy="20" r="17.5"/>
<path fill="#4E657D" d="M26.75,13.095V27.72H14.938c-0.932,0-1.688-0.756-1.688-1.688s0.756-1.688,1.688-1.688h10.688v-13.5h-11.25
	c-1.238,0-2.25,1.012-2.25,2.25v13.5c0,1.237,1.012,2.25,2.25,2.25h13.5v-15.75H26.75z M19.729,21.692
	c-0.145,0.153-0.348,0.23-0.609,0.23c-0.264,0-0.467-0.075-0.607-0.225c-0.141-0.15-0.211-0.361-0.211-0.632
	c0-0.56,0.273-0.84,0.818-0.84c0.266,0,0.471,0.074,0.611,0.22c0.141,0.146,0.211,0.354,0.211,0.62
	C19.941,21.33,19.869,21.538,19.729,21.692z M19.465,13.399c0.725,0,1.301,0.179,1.727,0.534c0.428,0.356,0.639,0.847,0.639,1.474
	c0,0.277-0.039,0.525-0.121,0.741c-0.082,0.218-0.203,0.424-0.369,0.62c-0.164,0.196-0.449,0.452-0.854,0.768
	c-0.346,0.27-0.576,0.494-0.693,0.673c-0.115,0.177-0.174,0.416-0.174,0.716v0.251h-1.09v-0.356c0-0.407,0.074-0.746,0.223-1.017
	c0.146-0.271,0.406-0.55,0.777-0.839c0.441-0.35,0.727-0.619,0.855-0.812c0.125-0.191,0.191-0.422,0.191-0.689
	c0-0.311-0.105-0.551-0.312-0.717s-0.506-0.25-0.895-0.25c-0.352,0-0.678,0.051-0.98,0.15c-0.299,0.1-0.592,0.22-0.877,0.36
	l-0.467-0.978C17.797,13.608,18.604,13.399,19.465,13.399z"/>
</svg>
