<?xml version="1.0" encoding="utf-8"?>
<!-- Generator: Adobe Illustrator 19.0.1, SVG Export Plug-In . SVG Version: 6.00 Build 0)  -->
<svg version="1.1" id="Layer_1" xmlns="http://www.w3.org/2000/svg" xmlns:xlink="http://www.w3.org/1999/xlink" x="0px" y="0px"
	 viewBox="0 0 505 560" style="enable-background:new 0 0 505 560;" xml:space="preserve">
<style type="text/css">
	.st0{opacity:5.000000e-002;}
	.st1{fill:none;stroke:#000000;stroke-miterlimit:10;}
</style>
<g id="XMLID_4430_" class="st0">
	<path id="XMLID_4434_" class="st1" d="M251.8,11.4C188.3,74.3,23.7,93.5,23.7,93.5c-3.4,21.9-5.3,44.3-5.3,67.1
		c0,168.3,94.8,314.4,233.8,388.1C391.2,475,486,329,486,160.6c0-22.8-1.9-45.2-5.2-67.1C480.8,93.5,320.5,72.3,251.8,11.4
		L251.8,11.4z"/>
	<path id="XMLID_4431_" d="M251.9,127.7c-74.9,0-135.7,60.7-135.7,135.7S177,399,251.9,399c74.9,0,135.7-60.7,135.7-135.7
		S326.9,127.7,251.9,127.7z M327.2,266.6h-64.5v64.5h-21.5v-64.5h-64.5v-21.5l64.5,0v-64.5h21.5v64.5l64.5,0V266.6z"/>
</g>
</svg>
