<?xml version="1.0" encoding="utf-8"?>
<!-- Generator: Adobe Illustrator 19.0.1, SVG Export Plug-In . SVG Version: 6.00 Build 0)  -->
<svg version="1.1" id="Layer_1" xmlns="http://www.w3.org/2000/svg" xmlns:xlink="http://www.w3.org/1999/xlink" x="0px" y="0px"
	 viewBox="0 0 62 57" style="enable-background:new 0 0 62 57;" xml:space="preserve">
<style type="text/css">
	.st0{fill:none;stroke:#7F848A;stroke-width:2;stroke-miterlimit:10;}
	.st1{fill:#7F848A;}
	.st2{fill:none;stroke:#7F848A;stroke-miterlimit:10;}
	.st3{fill:#DE2323;}
	.st4{fill:#FFFFFF;}
</style>
<g>
	<g>
		<g>
			<path class="st0" d="M44.3,32.5c0,0-19.1,0-19.9,0s-1.6-3.7-2.7-6c-1.1-2.4-2.7-6-2.7-6h27.3L44.3,32.5z"/>
			<circle class="st1" cx="26.7" cy="41.1" r="2.6"/>
			<circle class="st1" cx="39.9" cy="41.1" r="2.6"/>
		</g>
		<path class="st0" d="M10.5,15.1c0,0,5.4-0.9,7.6,4s6.2,12.2,5.5,13.7c-0.6,1.5-2.9,3.3-2.1,4.7c0.8,0.8,1.8,1.6,5.6,1.6H43"/>
	</g>
	<g>
		<g id="add_icon_3_">
			<circle id="XMLID_33_" class="st3" cx="41.5" cy="21" r="8.4"/>
		</g>
		<path id="XMLID_31_" class="st4" d="M47.3,16.9c-0.3-0.3-0.8-0.3-1.2,0L40,23.3l-2.8-2.4c-0.3-0.3-0.8-0.3-1.2,0
			c-0.3,0.3-0.3,0.9,0,1.2l3.4,3c0.2,0.2,0.4,0.3,0.6,0.3c0.2,0,0.4-0.1,0.6-0.3l6.7-7.1C47.6,17.7,47.6,17.2,47.3,16.9z"/>
	</g>
</g>
</svg>
