<?xml version="1.0" ?><!DOCTYPE svg  PUBLIC '-//W3C//DTD SVG 1.1//EN'  'http://www.w3.org/Graphics/SVG/1.1/DTD/svg11.dtd'>
<svg enable-background="new 0 0 91 91" height="91px" id="Layer_1" version="1.1" viewBox="0 0 91 91" width="91px" xml:space="preserve" xmlns="http://www.w3.org/2000/svg" xmlns:xlink="http://www.w3.org/1999/xlink">
	<g>
		<path stroke="#000000" stroke-width="2" d="M72.908,25.376c-0.5-0.307-1.122-0.336-1.647-0.076l-4.477,2.223c0.021-0.213,0.058-0.432,0.058-0.635   c0-6.548-5.328-11.875-11.875-11.875S43.092,20.34,43.092,26.888c0,0.232,0.039,0.479,0.065,0.722l-6.915-2.393   c-0.432-0.149-0.906-0.118-1.316,0.086l-13.369,6.683c-0.575,0.287-0.939,0.876-0.939,1.52v41.349c0,0.571,0.287,1.105,0.766,1.42   c0.477,0.314,1.082,0.368,1.605,0.142l13.027-5.596l18.316,7.385c0.204,0.083,0.42,0.124,0.636,0.124   c0.256,0,0.511-0.058,0.746-0.173l17.317-8.457c0.588-0.286,0.959-0.885,0.955-1.538l-0.27-41.349   C73.713,26.226,73.407,25.683,72.908,25.376z M54.967,18.413c4.673,0,8.475,3.802,8.475,8.475c0,3.22-4.783,9.596-8.475,13.688   c-3.691-4.092-8.475-10.468-8.475-13.688C46.492,22.215,50.294,18.413,54.967,18.413z M53.267,43.747v30.362l-15.88-6.403v-6.648   c1.816-1.954,6.682-7.538,6.682-11.305c0-4.04-2.873-7.421-6.682-8.209V29.21l7.042,2.438   C46.795,36.606,51.622,41.989,53.267,43.747z M35.687,44.771c2.747,0,4.981,2.235,4.981,4.982c0,1.755-2.615,5.409-4.981,8.112   c-2.367-2.703-4.982-6.357-4.982-8.112C30.704,47.006,32.939,44.771,35.687,44.771z M24.018,34.556l9.969-4.982v11.972   c-3.811,0.788-6.683,4.169-6.683,8.208c0,3.767,4.864,9.349,6.683,11.304v6.935l-9.969,4.282V34.556z M56.667,73.906V43.747   c1.601-1.711,6.228-6.855,8.655-11.703l5.012-2.488l0.244,37.557L56.667,73.906z" 
		fill="#010101"/>
		<path d="5.686,51.863c1.107,0,2.01-0.901,2.01-2.009c0-1.108-0.902-2.011-2.01-2.011s-2.008,0.902-2.008,2.011   C33.678,50.962,34.578,51.863,35.686,51.863z" stroke="#000000" stroke-width="2" fill="#010101"/>
		<path d="M61.404,26.644c0-3.549-2.889-6.437-6.438-6.437s-6.436,2.888-6.436,6.437s2.887,6.438,6.436,6.438   S61.404,30.192,61.404,26.644z M51.932,26.644c0-1.674,1.361-3.036,3.035-3.036s3.037,1.362,3.037,3.036s-1.363,3.037-3.037,3.037   S51.932,28.317,51.932,26.644z" stroke="#000000" stroke-width="2" fill="#010101"/>
	</g>
</svg>