<?xml version="1.0" encoding="utf-8"?>
<!-- Generator: Adobe Illustrator 19.0.1, SVG Export Plug-In . SVG Version: 6.00 Build 0)  -->
<svg version="1.1" id="Layer_1" xmlns="http://www.w3.org/2000/svg" xmlns:xlink="http://www.w3.org/1999/xlink" x="0px" y="0px"
	 viewBox="0 0 60 59" style="enable-background:new 0 0 60 59;" xml:space="preserve">
<style type="text/css">
	.st0{fill:none;stroke:#4A647F;stroke-miterlimit:10;}
	.st1{fill:#4A647F;}
	.st2{fill:none;stroke:#FFFFFF;stroke-miterlimit:10;}
	.st3{fill:#FFFFFF;}
</style>
<g>
	<path class="st0" d="M15.1,46.2c-4.4-0.7-6.9-2.9-7.6-6.5c-0.8-3.6,0.9-8.7,7.4-10"/>
	<circle class="st1" cx="30.2" cy="15.3" r="3.2"/>
	<circle class="st1" cx="30.2" cy="44.6" r="3.2"/>
	<circle class="st1" cx="15.6" cy="30" r="3.2"/>
	<circle class="st1" cx="45.3" cy="30" r="3.2"/>
	<g>
		<g>
			<path class="st1" d="M30.3,7.2c12.2,0,22.1,9.9,22.1,22.1s-9.9,22.1-22.1,22.1S8.2,41.6,8.2,29.4S18.1,7.2,30.3,7.2 M30.3,6.2
				C17.6,6.2,7.2,16.6,7.2,29.4s10.4,23.1,23.1,23.1s23.1-10.4,23.1-23.1S43.1,6.2,30.3,6.2L30.3,6.2z"/>
		</g>
	</g>
	<path class="st0" d="M10.7,18C8.7,16.5,6.6,6,30.6,29c23.5,22.5,12.8,21.7,11,19.9"/>
	<path class="st0" d="M21.5,50.2c-1.7,1.6-15.6,2.6,9.1-21.3c24.9-24,21.7-12,19.7-10"/>
	<path class="st0" d="M44.9,29.7c0-2.6-6.5-4.7-14.5-4.7"/>
	<path class="st0" d="M30.1,15.5c2.6,0,4.7,6.5,4.7,14.5"/>
	<path class="st0" d="M15.6,30.3c0,2.6,6.5,4.7,14.5,4.7"/>
	<path class="st0" d="M30.4,44.4c-2.6,0-4.7-6.5-4.7-14.5"/>
	<path class="st0" d="M53,27.8c2.5,0.7,5.2,11.6-7.1,2.3"/>
	<circle class="st1" cx="30.2" cy="30" r="7.4"/>
	<circle class="st3" cx="30.2" cy="30" r="3.2"/>
</g>
</svg>
