<?xml version="1.0" encoding="utf-8"?>
<!-- Generator: Adobe Illustrator 19.0.1, SVG Export Plug-In . SVG Version: 6.00 Build 0)  -->
<svg version="1.1" id="Layer_1" xmlns="http://www.w3.org/2000/svg" xmlns:xlink="http://www.w3.org/1999/xlink" x="0px" y="0px"
	 viewBox="470 340.5 500 500" style="enable-background:new 470 340.5 500 500;" xml:space="preserve">
<style type="text/css">
	.st0{fill:#FFFFFF;}
	.st1{fill:none;stroke:#FFFFFF;stroke-miterlimit:10;}
	.st2{fill:#EC2227;}
	.st3{opacity:0.1;}
	.st4{fill:none;stroke:#000000;stroke-miterlimit:10;}
</style>
<g class="st3">
	<path class="st4" d="M542.7,761.8c-46.3-7.6-61.9-26.9-69.9-64.2c-7.9-37.3,8.9-90.4,76.9-104.1"/>
	<g>
		<path d="M710.9,350.6c132.3,0,239.9,107.6,239.9,239.9c0,132.3-107.6,239.9-239.9,239.9C578.6,830.4,471,722.8,471,590.5
			C471,458.2,578.6,350.6,710.9,350.6 M710.9,349.6C578.1,349.6,470,457.7,470,590.5c0,132.8,108.1,240.9,240.9,240.9
			c132.8,0,240.9-108.1,240.9-240.9C951.8,457.7,843.7,349.6,710.9,349.6L710.9,349.6z"/>
	</g>
	<path class="st4" d="M755.8,627c190.3,192.5,96,186.4,78.8,168.8"/>
	<path class="st4" d="M502.3,470.5c-20.2-15.5-36.7-113.9,179.1,84.9"/>
	<path class="st4" d="M752.1,549.3c217.4-201.3,190.8-92.5,170.2-73.5"/>
	<path class="st4" d="M613,809.8c-16.8,15.7-137.3,23.3,52.7-175.9"/>
	<path class="st4" d="M862.5,593.7c0-27.3-67.6-49.4-151-49.4"/>
	<path class="st4" d="M708.5,446.2c27.3,0,49.4,67.6,49.4,151"/>
	<path class="st4" d="M557.6,599.7c0,27.3,67.6,49.4,151,49.4"/>
	<path class="st4" d="M711.5,747.3c-27.3,0-49.4-67.6-49.4-151"/>
	<path class="st4" d="M950.7,574.8c18.8,1.7,37.8,108.7-76.9,23.3"/>
	<circle cx="709.7" cy="443.5" r="33.6"/>
	<circle cx="709.8" cy="749.1" r="33.6"/>
	<circle cx="558.1" cy="597.1" r="33.6"/>
	<circle cx="867.3" cy="597.1" r="33.6"/>
	<g>
		<path d="M710,520c-42.6,0-77.1,34.5-77.1,77.1c0,42.6,34.5,77.1,77.1,77.1c42.6,0,77.1-34.5,77.1-77.1
			C787.1,554.5,752.6,520,710,520z M710,630.7c-18.5,0-33.6-15-33.6-33.6c0-18.6,15-33.6,33.6-33.6c18.6,0,33.6,15,33.6,33.6
			C743.6,615.6,728.6,630.7,710,630.7z"/>
	</g>
</g>
</svg>
