<?xml version="1.0" encoding="utf-8"?>
<!-- Generator: Adobe Illustrator 15.0.2, SVG Export Plug-In . SVG Version: 6.00 Build 0)  -->
<!DOCTYPE svg PUBLIC "-//W3C//DTD SVG 1.1//EN" "http://www.w3.org/Graphics/SVG/1.1/DTD/svg11.dtd">
<svg version="1.1" id="Layer_1" xmlns="http://www.w3.org/2000/svg" xmlns:xlink="http://www.w3.org/1999/xlink" x="0px" y="0px"
	 width="45px" height="45px" viewBox="0 0 45 45" enable-background="new 0 0 45 45" xml:space="preserve">
<path fill="none" stroke="#808389" stroke-width="1.7" stroke-miterlimit="10" d="M36,30.938c-2.798,0-5.064-2.26-5.064-5.063
	v-7.511c0-3.715-2.896-6.808-6.75-7.517V9h-3.375v1.847c-3.855,0.709-6.751,3.802-6.751,7.517v7.511c0,2.804-2.267,5.063-5.06,5.063
	v1.688h11.322c-0.132,0.305-0.211,0.645-0.211,0.99c0,1.318,1.067,2.385,2.388,2.385c1.322,0,2.39-1.066,2.39-2.385
	c0-0.346-0.075-0.686-0.217-0.99H36V30.938z"/>
</svg>
