<?xml version="1.0" encoding="utf-8"?>
<!-- Generator: Adobe Illustrator 19.0.1, SVG Export Plug-In . SVG Version: 6.00 Build 0)  -->
<svg version="1.1" id="Layer_1" xmlns="http://www.w3.org/2000/svg" xmlns:xlink="http://www.w3.org/1999/xlink" x="0px" y="0px"
	 viewBox="0 0 29.5 34.3" style="enable-background:new 0 0 29.5 34.3;" xml:space="preserve">
<style type="text/css">
	.st0{fill:none;stroke:#2E4F60;stroke-width:0.6571;stroke-miterlimit:10;}
</style>
<path id="XMLID_2560_" class="st0" d="M14.7,4.4c-5,0-9,3.9-9,8.8c0,0.1,0,0.2,0,0.3c0,0.9,0.2,1.8,0.5,2.6
	c1.9,6.2,8.5,14.2,8.5,14.2s6.6-8.1,8.5-14.2c0.3-0.8,0.5-1.7,0.5-2.6c0-0.1,0-0.2,0-0.3C23.7,8.3,19.6,4.4,14.7,4.4z M14.7,17.5
	c-2.4,0-4.4-2-4.4-4.4c0-2.4,2-4.4,4.4-4.4c2.4,0,4.4,2,4.4,4.4C19.1,15.5,17.1,17.5,14.7,17.5z"/>
</svg>
