<?xml version="1.0" encoding="utf-8"?>
<!-- Generator: Adobe Illustrator 19.1.0, SVG Export Plug-In . SVG Version: 6.00 Build 0)  -->
<svg version="1.1" id="Layer_1" xmlns="http://www.w3.org/2000/svg" xmlns:xlink="http://www.w3.org/1999/xlink" x="0px" y="0px"
	 viewBox="-296 389 18.3 16" style="enable-background:new -296 389 18.3 16;" xml:space="preserve">
<style type="text/css">
	.st0{fill:#FFFFFF;}
</style>
<g>
	<path class="st0" d="M-277.8,395.5c0-3.6-1.1-6.5-2.3-6.5l0,0h-1.5c0,0-3.5,2.6-8.5,3.6c-0.2,0.8-0.3,1.8-0.3,2.9s0.1,2.1,0.3,2.9
		c5,1,8.5,3.6,8.5,3.6h1.5l0,0C-278.8,402-277.8,399.1-277.8,395.5L-277.8,395.5z M-280.5,401.1c-0.2,0-0.3-0.2-0.4-0.3
		c-0.2-0.3-0.4-0.6-0.6-1.1c-0.4-1.1-0.6-2.6-0.6-4.1c0-1.6,0.2-3,0.6-4.1c0.2-0.5,0.4-0.9,0.6-1.1c0.1-0.1,0.3-0.3,0.4-0.3
		c0.2,0,0.4,0.2,0.4,0.3c0.2,0.3,0.4,0.6,0.6,1.1c0.4,1.1,0.6,2.6,0.6,4.1c0,1.6-0.2,3-0.6,4.1c-0.2,0.5-0.4,0.9-0.6,1.1
		C-280.1,400.9-280.3,401.1-280.5,401.1 M-291.4,395.5c0-0.9,0.1-1.8,0.2-2.7c-0.8,0.1-1.6,0.2-2.5,0.2h-1.2l-1,1.7v1.6l1,1.7h1.2
		c0.9,0,1.7,0.1,2.5,0.2C-291.4,397.4-291.4,396.4-291.4,395.5L-291.4,395.5L-291.4,395.5z M-289.4,399.3l-2.3-0.4l1.5,5.7
		c0.1,0.3,0.4,0.4,0.7,0.3l2.1-0.8c0.3-0.1,0.4-0.4,0.3-0.7L-289.4,399.3L-289.4,399.3z M-280.5,397.7c-0.1,0-0.1-0.1-0.2-0.1
		c-0.1-0.1-0.2-0.2-0.2-0.4c-0.2-0.4-0.2-1-0.2-1.6s0.1-1.2,0.2-1.6c0.1-0.2,0.2-0.3,0.2-0.4c0,0,0.1-0.1,0.2-0.1s0.1,0.1,0.2,0.1
		c0.1,0.1,0.2,0.2,0.2,0.4c0.2,0.4,0.2,1,0.2,1.6s-0.1,1.2-0.2,1.6c-0.1,0.2-0.2,0.3-0.2,0.4C-280.4,397.6-280.4,397.7-280.5,397.7"
		/>
</g>
</svg>
