<?xml version="1.0" encoding="utf-8"?>
<!-- Generator: Adobe Illustrator 19.1.0, SVG Export Plug-In . SVG Version: 6.00 Build 0)  -->
<svg version="1.1" id="Layer_1" xmlns="http://www.w3.org/2000/svg" xmlns:xlink="http://www.w3.org/1999/xlink" x="0px" y="0px"
	 viewBox="-275.9 387.5 10.5 18" style="enable-background:new -275.9 387.5 10.5 18;" xml:space="preserve">
<style type="text/css">
	.st0{fill:#4E657D;}
</style>
<g>
	<g>
		<path class="st0" d="M-265.1,399.3c0,1.1-0.4,2.1-1.2,2.8c-0.8,0.7-2,1.1-3.5,1.2v2.2h-1.5v-2.2c-1.8,0-3.3-0.3-4.6-0.9v-2.8
			c0.6,0.3,1.4,0.6,2.3,0.8c0.9,0.2,1.7,0.4,2.4,0.4v-3.3l-0.7-0.3c-1.4-0.6-2.4-1.2-3-1.8c-0.6-0.7-0.9-1.5-0.9-2.4
			c0-1,0.4-1.9,1.2-2.6c0.8-0.7,1.9-1.1,3.4-1.2v-1.6h1.5v1.6c1.6,0.1,3.1,0.4,4.5,1l-1,2.5c-1.1-0.5-2.3-0.7-3.4-0.8v3.2
			c1.4,0.5,2.4,1,3,1.4c0.6,0.4,1,0.8,1.3,1.3C-265.2,398.1-265.1,398.7-265.1,399.3z M-272.7,392.9c0,0.3,0.1,0.6,0.3,0.8
			c0.2,0.2,0.6,0.4,1.1,0.6v-2.5C-272.2,392-272.7,392.3-272.7,392.9z M-268.3,399.5c0-0.3-0.1-0.6-0.4-0.8
			c-0.2-0.2-0.6-0.4-1.1-0.6v2.7C-268.8,400.6-268.3,400.1-268.3,399.5z"/>
	</g>
</g>
</svg>
