<?xml version="1.0" encoding="utf-8"?>
<!-- Generator: Adobe Illustrator 19.1.0, SVG Export Plug-In . SVG Version: 6.00 Build 0)  -->
<svg version="1.1" id="Layer_1" xmlns="http://www.w3.org/2000/svg" xmlns:xlink="http://www.w3.org/1999/xlink" x="0px" y="0px"
	 viewBox="-279.8 386.5 18.6 20" style="enable-background:new -279.8 386.5 18.6 20;" xml:space="preserve">
<style type="text/css">
	.st0{fill:#4E657D;}
</style>
<g>
	<g>
		<path class="st0" d="M-262.2,394.8c-0.7-1.3-0.3-2.9,1-3.6l-1.4-2.4c-0.4,0.2-0.8,0.4-1.3,0.4c-1.5,0-2.6-1.2-2.6-2.7h-2.7
			c0,0.5-0.1,0.9-0.4,1.3c-0.7,1.3-2.4,1.7-3.6,1l-1.4,2.4c0.4,0.2,0.7,0.6,1,1c0.7,1.3,0.3,2.9-1,3.6l1.4,2.4
			c0.4-0.2,0.8-0.4,1.3-0.4c1.5,0,2.6,1.2,2.6,2.6h2.7c0-0.5,0.1-0.9,0.4-1.3c0.7-1.3,2.4-1.7,3.6-1l1.4-2.4
			C-261.6,395.5-261.9,395.2-262.2,394.8 M-267.9,396.3c-1.6,0-2.8-1.3-2.8-2.8c0-1.6,1.3-2.8,2.8-2.8c1.6,0,2.8,1.3,2.8,2.8
			C-265.1,395-266.4,396.3-267.9,396.3"/>
		<path class="st0" d="M-272,403c-0.5-0.8-0.2-1.8,0.6-2.3l-0.9-1.5c-0.2,0.1-0.5,0.2-0.8,0.2c-0.9,0-1.7-0.8-1.7-1.7h-1.7
			c0,0.3-0.1,0.6-0.2,0.8c-0.5,0.8-1.5,1.1-2.3,0.6l-0.9,1.5c0.2,0.1,0.5,0.3,0.6,0.6c0.5,0.8,0.2,1.8-0.6,2.3l0.9,1.5
			c0.2-0.1,0.5-0.2,0.8-0.2c0.9,0,1.7,0.7,1.7,1.7h1.7c0-0.3,0.1-0.6,0.2-0.8c0.5-0.8,1.5-1.1,2.3-0.6l0.9-1.5
			C-271.6,403.4-271.8,403.2-272,403 M-275.6,403.9c-1,0-1.8-0.8-1.8-1.8c0-1,0.8-1.8,1.8-1.8c1,0,1.8,0.8,1.8,1.8
			C-273.8,403.1-274.6,403.9-275.6,403.9"/>
	</g>
</g>
</svg>
