<?xml version="1.0" encoding="utf-8"?>
<!-- Generator: Adobe Illustrator 19.1.0, SVG Export Plug-In . SVG Version: 6.00 Build 0)  -->
<svg version="1.1" id="Layer_1" xmlns="http://www.w3.org/2000/svg" xmlns:xlink="http://www.w3.org/1999/xlink" x="0px" y="0px"
	 viewBox="-300 388 10.5 18" style="enable-background:new -300 388 10.5 18;" xml:space="preserve">
<style type="text/css">
	.st0{fill:#FFFFFF;}
</style>
<g>
	<g>
		<path class="st0" d="M-289.4,399.7c0,1.1-0.4,2.1-1.2,2.8s-2,1.1-3.5,1.2v2.2h-1.5v-2.2c-1.8,0-3.3-0.3-4.6-0.9V400
			c0.6,0.3,1.4,0.6,2.3,0.8c0.9,0.2,1.7,0.4,2.4,0.4v-3.3l-0.7-0.3c-1.4-0.6-2.4-1.2-3-1.8c-0.6-0.7-0.9-1.5-0.9-2.4
			c0-1,0.4-1.9,1.2-2.6s1.9-1.1,3.4-1.2v-1.6h1.5v1.6c1.6,0.1,3.1,0.4,4.5,1l-1,2.5c-1.1-0.5-2.3-0.7-3.4-0.8v3.2
			c1.4,0.5,2.4,1,3,1.4s1,0.8,1.3,1.3C-289.5,398.5-289.4,399.1-289.4,399.7z M-297,393.4c0,0.3,0.1,0.6,0.3,0.8s0.6,0.4,1.1,0.6
			v-2.5C-296.5,392.4-297,392.7-297,393.4z M-292.6,399.9c0-0.3-0.1-0.6-0.4-0.8c-0.2-0.2-0.6-0.4-1.1-0.6v2.7
			C-293.1,401-292.6,400.5-292.6,399.9z"/>
	</g>
</g>
</svg>
