<?xml version="1.0" encoding="utf-8"?>
<!-- Generator: Adobe Illustrator 19.1.0, SVG Export Plug-In . SVG Version: 6.00 Build 0)  -->
<svg version="1.1" id="Layer_1" xmlns="http://www.w3.org/2000/svg" xmlns:xlink="http://www.w3.org/1999/xlink" x="0px" y="0px"
	 viewBox="-253 373.9 47.1 47" style="enable-background:new -253 373.9 47.1 47;" xml:space="preserve">
<style type="text/css">
	.st0{fill:#5AD971;stroke:#5AD971;stroke-width:2.0}
	.st1{fill:none;stroke:#5AD971;stroke-width:4.0;stroke-miterlimit:10;}
	.st2{fill:none}
	.st3{fill:#fff;stroke:#5AD971;stroke-width:0.9;opacity:3.0}
</style>
<g>
	<circle class="st3" cx="-229.4" cy="397.4" r="22.5"/>
	<path class="st3" d="M-222,399.2c-0.3-0.3-1-0.5-2-0.5c-0.7,0-1.5,0.1-2.4,0.2c-0.4-0.2-0.8-0.5-1.1-0.8c-0.9-0.8-1.6-1.9-2-3.2
		c0-0.1,0.1-0.2,0.1-0.3c0,0,0.5-2.8,0.4-3.7c0-0.1,0-0.2-0.1-0.3l0-0.1c-0.1-0.3-0.4-0.6-0.8-0.6l-0.2,0c-0.5,0-0.8,0.2-0.9,0.6
		c-0.3,1.1,0,2.7,0.6,4.8l-0.1,0.3c-0.4,1-0.9,1.9-1.3,2.8l-0.1,0.1c-0.5,0.9-0.9,1.7-1.3,2.3l-0.4,0.2c0,0-0.7,0.4-0.9,0.5
		c-1.3,0.8-2.2,1.7-2.4,2.4c0,0.2,0,0.5,0.2,0.7l0.4,0.2c0.2,0.1,0.3,0.1,0.5,0.1c0.9,0,2.1-1.2,3.6-3.8c1.8-0.6,3.7-1,5.5-1.3
		c1.3,0.8,3,1.3,4,1.3c0.2,0,0.3,0,0.5-0.1c0.2-0.1,0.4-0.2,0.5-0.3c0.2-0.3,0.2-0.7,0.2-1.1C-221.8,399.4-221.9,399.3-222,399.2
		L-222,399.2z M-236.2,404.2c0.2-0.5,0.9-1.4,1.9-2.2c0.1-0.1,0.2-0.2,0.4-0.3C-235,403.3-235.7,404-236.2,404.2
		C-236.2,404.2-236.2,404.2-236.2,404.2z M-230.2,390.4c0.3,0,0.5,0.8,0.5,1.5c0,0.7-0.2,1.2-0.4,1.6c-0.2-0.6-0.3-1.4-0.3-2
		C-230.3,391.5-230.3,390.4-230.2,390.4 M-232,400.3c0.2-0.4,0.4-0.8,0.7-1.2c0.6-1,0.9-1.9,1.2-2.5c0.5,0.9,1.2,1.7,1.9,2.4
		c0.1,0.1,0.2,0.2,0.3,0.2C-229.5,399.4-230.8,399.8-232,400.3L-232,400.3z M-222.3,400.2c-0.1,0.1-0.4,0.1-0.5,0.1
		c-0.6,0-1.2-0.3-2.2-0.7c0.4,0,0.7,0,1,0c0.6,0,0.7,0,1.3,0.1C-222.2,399.8-222.2,400.1-222.3,400.2L-222.3,400.2L-222.3,400.2z"/>
	<path class="st1" d="M-220.3,391.1c-0.5-0.7-1.2-1.5-2-2.2c-0.8-0.8-1.6-1.5-2.2-2c-1.2-0.8-1.7-0.9-2-0.9h-11.1
		c-1,0-1.8,0.8-1.8,1.8v19.4c0,1,0.8,1.8,1.8,1.8h16.5c1,0,1.8-0.8,1.8-1.8v-14C-219.4,392.8-219.5,392.2-220.3,391.1"/>
	<polyline class="st1" points="-219.9,392.6 -226.1,392.6 -226.1,386.3 	"/>
</g>
</svg>
