<?xml version="1.0" encoding="utf-8"?>
<!-- Generator: Adobe Illustrator 19.1.0, SVG Export Plug-In . SVG Version: 6.00 Build 0)  -->
<svg version="1.1" id="Layer_1" xmlns="http://www.w3.org/2000/svg" xmlns:xlink="http://www.w3.org/1999/xlink" x="0px" y="0px"
	 viewBox="-278.4 387.5 15.8 18" style="enable-background:new -278.4 387.5 15.8 18;" xml:space="preserve">
<style type="text/css">
	.st0{fill:#4E657D;}
</style>
<path class="st0" d="M-263.7,389.8v14.6h-11.8c-0.9,0-1.7-0.8-1.7-1.7c0-0.9,0.8-1.7,1.7-1.7h10.7v-13.5h-11.2c-1.2,0-2.2,1-2.2,2.2
	v13.5c0,1.2,1,2.2,2.2,2.2h13.5v-15.8H-263.7z M-270.8,398.3c-0.1,0.2-0.3,0.2-0.6,0.2c-0.3,0-0.5-0.1-0.6-0.2
	c-0.1-0.1-0.2-0.4-0.2-0.6c0-0.6,0.3-0.8,0.8-0.8c0.3,0,0.5,0.1,0.6,0.2c0.1,0.1,0.2,0.4,0.2,0.6
	C-270.6,398-270.6,398.2-270.8,398.3z M-271,390.1c0.7,0,1.3,0.2,1.7,0.5c0.4,0.4,0.6,0.8,0.6,1.5c0,0.3,0,0.5-0.1,0.7
	c-0.1,0.2-0.2,0.4-0.4,0.6c-0.2,0.2-0.4,0.5-0.9,0.8c-0.3,0.3-0.6,0.5-0.7,0.7c-0.1,0.2-0.2,0.4-0.2,0.7v0.3h-1.1v-0.4
	c0-0.4,0.1-0.7,0.2-1c0.1-0.3,0.4-0.6,0.8-0.8c0.4-0.3,0.7-0.6,0.9-0.8c0.1-0.2,0.2-0.4,0.2-0.7c0-0.3-0.1-0.6-0.3-0.7
	c-0.2-0.2-0.5-0.2-0.9-0.2c-0.4,0-0.7,0-1,0.1c-0.3,0.1-0.6,0.2-0.9,0.4l-0.5-1C-272.7,390.3-271.9,390.1-271,390.1z"/>
</svg>
