<?xml version="1.0" encoding="utf-8"?>
<!-- Generator: Adobe Illustrator 19.1.0, SVG Export Plug-In . SVG Version: 6.00 Build 0)  -->
<svg version="1.1" id="Layer_1" xmlns="http://www.w3.org/2000/svg" xmlns:xlink="http://www.w3.org/1999/xlink" x="0px" y="0px"
	 viewBox="-252.8 374.1 46.8 46.6" style="enable-background:new -252.8 374.1 46.8 46.6;" xml:space="preserve">
<style type="text/css">
	.st0{fill:none;stroke:#5AD971;stroke-width:2.0;stroke-miterlimit:10;}
	.st2{fill:#5AD971;stroke:#5AD971;stroke-width:2.0;stroke-miterlimit:10;}
	.st1{fill:#5AD971;stroke:#5AD971;stroke-width:0.2;stroke-miterlimit:10;}
	.st3{fill:none;}
</style>
<g>
	<circle class="st0" cx="-229.4" cy="397.4" r="22.5"/>
	<polygon class="st0" points="-217.9,408.5 -240.9,408.5 -240.9,395.1 -229.4,386.4 -217.9,395.1 	"/>
	<polyline class="st2" points="-240.9,408.4 -229.4,399.7 -217.9,408.4 	"/>
	<line class="st0" x1="-240.9" y1="395.1" x2="-231.6" y2="401.3"/>
	<line class="st0" x1="-217.9" y1="395.1" x2="-227.3" y2="401.3"/>
	<g>
		<path class="st1" d="M-231.2,395.9c-0.3-0.3-0.4-0.7-0.4-1.2c0-0.6,0.2-1.2,0.6-1.7c0.4-0.5,0.9-0.8,1.5-0.8
			c0.3,0,0.6,0.1,0.8,0.3c0.1,0.1,0.2,0.3,0.3,0.5l0.2-0.6h0.9l-0.6,2.2c0,0.2-0.1,0.3-0.1,0.4c0,0.1,0,0.2,0,0.2
			c0,0.1,0,0.2,0.1,0.3c0.1,0.1,0.2,0.1,0.3,0.1c0.3,0,0.6-0.2,0.9-0.6c0.3-0.4,0.4-0.9,0.4-1.5c0-0.9-0.4-1.6-1.2-2
			c-0.5-0.3-1-0.4-1.7-0.4c-1.1,0-2,0.3-2.7,1c-0.6,0.6-0.9,1.4-0.9,2.2c0,1,0.4,1.7,1.1,2.3c0.6,0.5,1.4,0.8,2.3,0.8
			c0.6,0,1.2-0.1,1.8-0.3c0.3-0.1,0.6-0.3,0.9-0.5l0.1-0.1l0.4,0.6c-0.5,0.4-1,0.6-1.5,0.8c-0.5,0.2-1.1,0.3-1.7,0.3
			c-1.4,0-2.4-0.4-3.2-1.3c-0.6-0.7-0.9-1.5-0.9-2.5c0-1.1,0.4-2,1.2-2.8c0.8-0.8,1.9-1.2,3.2-1.2c1,0,1.9,0.3,2.6,0.8
			c0.7,0.6,1.1,1.3,1.1,2.3c0,0.8-0.2,1.4-0.7,1.9c-0.5,0.5-1,0.8-1.6,0.8c-0.3,0-0.5-0.1-0.7-0.3c-0.2-0.2-0.2-0.4-0.2-0.5
			c0,0,0,0,0-0.1c0,0,0-0.1,0-0.1c-0.1,0.2-0.3,0.4-0.4,0.6c-0.3,0.3-0.6,0.4-1,0.4C-230.6,396.4-231,396.2-231.2,395.9z
			 M-228.9,393.1c-0.1-0.1-0.2-0.2-0.4-0.2c-0.3,0-0.6,0.2-0.9,0.6c-0.2,0.4-0.4,0.8-0.4,1.2c0,0.2,0.1,0.4,0.2,0.6
			c0.1,0.1,0.3,0.2,0.5,0.2c0.4,0,0.6-0.3,0.9-0.8c0.2-0.5,0.3-1,0.3-1.3C-228.7,393.4-228.8,393.2-228.9,393.1z"/>
	</g>
</g>
</svg>
