<?xml version="1.0" encoding="utf-8"?>
<!-- Generator: Adobe Illustrator 19.0.1, SVG Export Plug-In . SVG Version: 6.00 Build 0)  -->
<svg version="1.1" id="Layer_1" xmlns="http://www.w3.org/2000/svg" xmlns:xlink="http://www.w3.org/1999/xlink" x="0px" y="0px"
	 viewBox="0 0 500 500" style="enable-background:new 0 0 500 500;" xml:space="preserve">
<style type="text/css">
	.st0{fill:#4B647F;}
	.st1{fill:#E92529;}
	.st2{fill:none;stroke:#4B647F;stroke-miterlimit:10;}
	.st3{fill:none;stroke:#FFFFFF;stroke-linecap:round;stroke-miterlimit:10;}
	.st4{fill:none;stroke:#FFFFFF;stroke-miterlimit:10;}
	.st5{fill:#67BE62;}
	.st6{fill:none;stroke:#D72027;stroke-width:2;stroke-miterlimit:10;}
	.st7{fill:none;stroke:#4B647F;stroke-width:0.8966;stroke-miterlimit:10;}
	.st8{fill:none;stroke:#4B647F;stroke-width:0.926;stroke-miterlimit:10;}
	.st9{fill:#FFFFFF;}
	.st10{fill:#151415;}
	.st11{fill:#EB2427;}
	.st12{fill:url(#XMLID_226_);}
	.st13{opacity:0.15;fill:url(#XMLID_227_);}
	.st14{fill:none;}
	.st15{fill:url(#XMLID_228_);}
	.st16{font-family:'OpenSans-Light';}
	.st17{font-size:16px;}
	.st18{fill:none;stroke:#FFFFFF;stroke-width:1.5857;stroke-miterlimit:10;}
	.st19{fill:#EE2427;}
	.st20{fill:url(#SVGID_1_);}
	.st21{opacity:0.6;}
	.st22{fill:url(#SVGID_2_);}
	.st23{opacity:0.1;clip-path:url(#XMLID_331_);}
	.st24{fill:none;stroke:#000000;stroke-miterlimit:10;}
	.st25{fill:none;stroke:#FFFFFF;stroke-width:0.7419;stroke-miterlimit:10;}
	.st26{fill:none;stroke:#FFFFFF;stroke-width:2;stroke-linecap:round;stroke-miterlimit:10;}
	.st27{opacity:0.5;fill:none;stroke:#FFFFFF;stroke-width:2;stroke-miterlimit:10;}
	.st28{fill:none;stroke:#010101;stroke-miterlimit:10;}
	.st29{fill:url(#XMLID_348_);}
	.st30{opacity:0.15;fill:url(#XMLID_349_);}
	.st31{fill:url(#XMLID_351_);}
	.st32{fill:url(#SVGID_3_);}
	.st33{fill:url(#SVGID_4_);}
	.st34{opacity:0.1;clip-path:url(#XMLID_353_);}
	.st35{fill:url(#XMLID_356_);}
	.st36{opacity:0.15;fill:url(#XMLID_357_);}
	.st37{fill:url(#XMLID_358_);}
	.st38{fill:url(#SVGID_5_);}
	.st39{fill:url(#SVGID_6_);}
	.st40{opacity:0.1;}
	.st41{opacity:0.1;fill:none;}
</style>
<rect id="XMLID_397_" x="328.6" y="-63.6" class="st14" width="257.6" height="69.8"/>
<text id="XMLID_396_" transform="matrix(1 0 0 1 382.3486 -51.4243)" class="st9 st16 st17">Business Connection</text>
<rect id="XMLID_382_" x="71.2" y="-63.6" class="st14" width="257.6" height="69.8"/>
<text id="XMLID_381_" transform="matrix(1 0 0 1 116.1362 -51.4243)" class="st9 st16 st17">Unified Secure Services</text>
<g class="st40">
	<g id="XMLID_223_">
		<path d="M250,1c137.3,0,249,111.7,249,249c0,137.3-111.7,249-249,249S1,387.3,1,250C1,112.7,112.7,1,250,1 M250,0
			C112.2,0,0,112.2,0,250c0,137.8,112.2,250,250,250c137.8,0,250-112.2,250-250C500,112.2,387.8,0,250,0L250,0z"/>
	</g>
	<line id="XMLID_222_" class="st24" x1="250" y1="0" x2="250" y2="500"/>
	<g id="XMLID_195_">
		<path d="M250,1c82.3,0,149.3,111.7,149.3,249c0,137.3-67,249-149.3,249c-82.3,0-149.3-111.7-149.3-249C100.7,112.7,167.7,1,250,1
			 M250,0C167.1,0,99.7,112.2,99.7,250c0,137.8,67.4,250,150.3,250c82.9,0,150.3-112.2,150.3-250C400.3,112.2,332.9,0,250,0L250,0z"
			/>
	</g>
	<line id="XMLID_194_" class="st24" x1="30" y1="133.9" x2="470" y2="133.9"/>
	<line id="XMLID_193_" class="st24" x1="0" y1="250" x2="500" y2="250"/>
	<line id="XMLID_182_" class="st24" x1="30" y1="363.9" x2="470" y2="363.9"/>
	<path id="XMLID_180_" d="M151.7,134.4c0-19.5-15.8-35.4-35.4-35.4C96.8,99,81,114.8,81,134.4c0,19.5,15.8,35.4,35.4,35.4
		C135.9,169.8,151.7,153.9,151.7,134.4z"/>
	<path id="XMLID_178_" d="M70,364c0-19.3-15.7-35-35-35c-19.3,0-35,15.7-35,35c0,19.3,15.7,35,35,35C54.3,399,70,383.3,70,364z"/>
	<path id="XMLID_49_" d="M500,134c0-19.3-15.7-35-35-35c-19.3,0-35,15.7-35,35c0,19.3,15.7,35,35,35C484.3,169,500,153.3,500,134z"
		/>
	<g>
		<path d="M250,170.1c-44.1,0-79.9,35.8-79.9,79.9c0,44.1,35.8,79.9,79.9,79.9c44.1,0,79.9-35.8,79.9-79.9
			C329.9,205.9,294.1,170.1,250,170.1z M250,285.4c-19.5,0-35.4-15.8-35.4-35.4s15.8-35.4,35.4-35.4c19.5,0,35.4,15.8,35.4,35.4
			S269.5,285.4,250,285.4z"/>
	</g>
</g>
</svg>
