<?xml version="1.0" encoding="utf-8"?>
<!-- Generator: Adobe Illustrator 19.0.1, SVG Export Plug-In . SVG Version: 6.00 Build 0)  -->
<svg version="1.1" id="Layer_1" xmlns="http://www.w3.org/2000/svg" xmlns:xlink="http://www.w3.org/1999/xlink" x="0px" y="0px"
	 viewBox="0 0 52 52" style="enable-background:new 0 0 52 52;" xml:space="preserve">
<style type="text/css">
	.st0{fill:none;stroke:#FFFFFF;stroke-miterlimit:10;}
	.st1{fill:#FFFFFF;}
	.st2{fill:#EE2427;}
	.st3{fill:none;stroke:#4B647F;stroke-miterlimit:10;}
	.st4{fill:#4B647F;}
	.st5{fill:#EB272A;}
</style>
<g>
	<path id="XMLID_38_" class="st3" d="M26,50.5c-13.5,0-24.5-11-24.5-24.5c0-13.5,11-24.5,24.5-24.5c13.5,0,24.5,11,24.5,24.5
		C50.5,39.5,39.5,50.5,26,50.5z"/>
	<line id="XMLID_37_" class="st3" x1="25.1" y1="1.5" x2="25.1" y2="50.5"/>
	<path id="XMLID_35_" class="st3" d="M25.1,50.5c-8.1,0-14.7-11-14.7-24.5c0-13.5,6.6-24.5,14.7-24.5c8.1,0,14.7,11,14.7,24.5
		C39.9,39.5,33.3,50.5,25.1,50.5z"/>
	<line id="XMLID_34_" class="st3" x1="4.4" y1="14.6" x2="47.6" y2="14.6"/>
	<line id="XMLID_32_" class="st3" x1="1.5" y1="26" x2="50.5" y2="26"/>
	<line id="XMLID_31_" class="st3" x1="4.4" y1="37.2" x2="47.6" y2="37.2"/>
	<circle id="XMLID_28_" class="st4" cx="12.8" cy="14.2" r="3.5"/>
	<circle id="XMLID_27_" class="st4" cx="4.9" cy="38.3" r="3.4"/>
	<circle id="XMLID_26_" class="st4" cx="47.1" cy="13.7" r="3.4"/>
	<circle id="XMLID_25_" class="st4" cx="25.3" cy="26.3" r="7.8"/>
	<circle id="XMLID_24_" class="st1" cx="25.3" cy="26.3" r="3.5"/>
</g>
</svg>
