<?xml version="1.0" encoding="utf-8"?>
<!-- Generator: Adobe Illustrator 19.0.1, SVG Export Plug-In . SVG Version: 6.00 Build 0)  -->
<svg version="1.1" id="Layer_1" xmlns="http://www.w3.org/2000/svg" xmlns:xlink="http://www.w3.org/1999/xlink" x="0px" y="0px"
	 viewBox="0 0 60.3 58.5" style="enable-background:new 0 0 60.3 58.5;" xml:space="preserve">
<style type="text/css">
	.st0{opacity:5.000000e-002;}
	.st1{fill:none;stroke:#231F20;stroke-miterlimit:10;}
	.st2{fill:#5F5F5F;}
</style>
<g id="XMLID_1030_">
	<path id="XMLID_1033_" class="st2" d="M25.1,25.9c-0.8,0-1.4,0.6-1.4,1.4v7.1c0,0.8,0.6,1.4,1.4,1.4h10.1c0.8,0,1.4-0.6,1.4-1.4
		v-7.1c0-0.8-0.6-1.4-1.4-1.4 M30.6,31.3V33c0,0.2-0.2,0.4-0.4,0.4s-0.4-0.2-0.4-0.4v-1.7c-0.5-0.2-0.8-0.6-0.8-1.2
		c0-0.7,0.6-1.3,1.3-1.3c0.7,0,1.3,0.6,1.3,1.3C31.4,30.7,31,31.1,30.6,31.3z"/>
	<path id="XMLID_1032_" class="st2" d="M34.6,25.9v-3c0-2.4-2-4.4-4.4-4.4c-2.4,0-4.4,2-4.4,4.4v3.8c0,0.5,0.4,0.8,0.8,0.8
		c0.5,0,0.8-0.4,0.8-0.8v-3.8c0-1.5,1.2-2.8,2.8-2.8c1.5,0,2.8,1.2,2.8,2.8v3h-0.6"/>
</g>
</svg>
