<?xml version="1.0" encoding="utf-8"?>
<!-- Generator: Adobe Illustrator 16.0.0, SVG Export Plug-In . SVG Version: 6.00 Build 0)  -->
<!DOCTYPE svg PUBLIC "-//W3C//DTD SVG 1.1//EN" "http://www.w3.org/Graphics/SVG/1.1/DTD/svg11.dtd" [
	<!ENTITY ns_flows "http://ns.adobe.com/Flows/1.0/">
	<!ENTITY ns_extend "http://ns.adobe.com/Extensibility/1.0/">
	<!ENTITY ns_ai "http://ns.adobe.com/AdobeIllustrator/10.0/">
	<!ENTITY ns_graphs "http://ns.adobe.com/Graphs/1.0/">
]>
<svg version="1.1" id="Layer_1" xmlns:x="&ns_extend;" xmlns:i="&ns_ai;" xmlns:graph="&ns_graphs;"
	 xmlns="http://www.w3.org/2000/svg" xmlns:xlink="http://www.w3.org/1999/xlink" xmlns:a="http://ns.adobe.com/AdobeSVGViewerExtensions/3.0/"
	 x="0px" y="0px" width="24px" height="24px" viewBox="0 0 24 24" enable-background="new 0 0 24 24" xml:space="preserve">
<g>
	<path fill-rule="evenodd" clip-rule="evenodd" fill="#EB292C" d="M15.692,19.381c-2.204,0-4.408-0.002-6.612,0.002
		c-0.334,0-0.646-0.074-0.929-0.25c-0.296-0.184-0.508-0.443-0.649-0.761c-0.129-0.291-0.151-0.597-0.114-0.906
		c0.022-0.185,0.085-0.363,0.179-0.526c0.167-0.296,0.34-0.593,0.511-0.89c0.152-0.263,0.304-0.525,0.457-0.791
		c0.122-0.207,0.243-0.414,0.364-0.621c0.154-0.268,0.305-0.535,0.459-0.803c0.125-0.213,0.25-0.427,0.375-0.638
		c0.073-0.131,0.147-0.258,0.221-0.388c0.123-0.213,0.248-0.427,0.371-0.64c0.164-0.285,0.327-0.57,0.491-0.853
		c0.153-0.267,0.308-0.533,0.462-0.8c0.127-0.224,0.251-0.449,0.38-0.67c0.143-0.246,0.291-0.487,0.434-0.732
		c0.197-0.339,0.391-0.681,0.588-1.021c0.118-0.205,0.239-0.408,0.356-0.614c0.161-0.275,0.318-0.553,0.478-0.827
		c0.189-0.329,0.38-0.656,0.572-0.982c0.076-0.127,0.146-0.259,0.234-0.379c0.165-0.239,0.392-0.41,0.655-0.531
		c0.248-0.115,0.511-0.152,0.781-0.142c0.229,0.009,0.444,0.073,0.651,0.173c0.343,0.167,0.581,0.434,0.763,0.763
		c0.2,0.358,0.411,0.709,0.615,1.064c0.19,0.326,0.377,0.652,0.563,0.978c0.224,0.384,0.446,0.767,0.67,1.151
		c0.193,0.334,0.385,0.669,0.578,1.002c0.152,0.268,0.308,0.533,0.465,0.8c0.187,0.323,0.37,0.646,0.558,0.968
		c0.155,0.27,0.313,0.539,0.47,0.808c0.12,0.205,0.236,0.41,0.357,0.616c0.114,0.195,0.228,0.391,0.343,0.587
		c0.119,0.207,0.239,0.414,0.36,0.623c0.13,0.227,0.265,0.45,0.394,0.677c0.121,0.208,0.239,0.417,0.36,0.624
		c0.149,0.261,0.3,0.52,0.452,0.78c0.143,0.245,0.292,0.486,0.425,0.737c0.1,0.192,0.167,0.4,0.169,0.62
		c0,0.042,0.003,0.083,0.004,0.125c0.011,0.515-0.192,0.938-0.572,1.271c-0.304,0.264-0.659,0.398-1.07,0.398
		c-1.958-0.003-3.918-0.002-5.878-0.002C16.187,19.382,15.939,19.382,15.692,19.381C15.692,19.382,15.692,19.382,15.692,19.381z
		 M14.742,11.605c0,0.89,0.001,1.779,0,2.668c0,0.194,0.059,0.369,0.177,0.52c0.186,0.24,0.428,0.362,0.737,0.355
		c0.2-0.005,0.373-0.066,0.524-0.189c0.235-0.19,0.343-0.438,0.343-0.739c-0.001-1.733-0.001-3.469,0-5.205
		c0-0.173-0.035-0.335-0.12-0.487c-0.251-0.439-0.782-0.574-1.197-0.343c-0.304,0.168-0.464,0.437-0.464,0.792
		C14.743,9.853,14.742,10.729,14.742,11.605z M16.607,16.799c0.014-0.507-0.438-0.981-0.979-0.978
		c-0.512,0.004-0.978,0.416-0.976,0.982c0.002,0.532,0.44,0.969,0.976,0.969C16.167,17.772,16.607,17.335,16.607,16.799z"/>
	<g id="XMLID_1_">
		<path fill="#6B7F88" d="M12.143,6.917C12.227,7,12.224,7.007,12.164,7.108c-0.098,0.162-0.189,0.326-0.283,0.488
			c-0.12,0.205-0.239,0.411-0.358,0.615c-0.013,0.023-0.029,0.043-0.043,0.065c-0.099-0.104-0.191-0.208-0.291-0.304
			c-0.153-0.146-0.307-0.292-0.47-0.427c-0.258-0.217-0.541-0.401-0.835-0.563c-0.246-0.135-0.5-0.258-0.767-0.346
			C8.965,6.585,8.817,6.523,8.664,6.483c-0.213-0.055-0.431-0.092-0.645-0.14C7.791,6.293,7.558,6.298,7.327,6.28
			c-0.07-0.005-0.14-0.018-0.208-0.017C7.03,6.264,6.939,6.273,6.85,6.28c-0.133,0.01-0.266,0.015-0.398,0.033
			c-0.161,0.021-0.32,0.048-0.479,0.083C5.786,6.438,5.6,6.484,5.417,6.542C5.237,6.6,5.06,6.675,4.882,6.747
			C4.557,6.879,4.255,7.059,3.963,7.253C3.736,7.405,3.523,7.575,3.322,7.76C3.075,7.986,2.847,8.228,2.644,8.494
			C2.411,8.798,2.205,9.12,2.037,9.465c-0.161,0.329-0.296,0.668-0.381,1.024c-0.045,0.189-0.084,0.379-0.123,0.569
			c-0.07,0.339-0.09,0.685-0.078,1.029c0.007,0.22,0.025,0.441,0.055,0.659c0.027,0.201,0.069,0.4,0.118,0.597
			c0.102,0.399,0.243,0.784,0.43,1.154c0.148,0.293,0.318,0.571,0.511,0.838c0.23,0.315,0.494,0.6,0.783,0.862
			c0.327,0.297,0.688,0.552,1.076,0.763c0.28,0.152,0.57,0.282,0.872,0.392c0.255,0.09,0.515,0.157,0.78,0.21
			c0.124,0.023,0.251,0.04,0.376,0.06c0.038,0.006,0.078,0.013,0.08,0.063c0.007,0.134,0.053,0.26,0.083,0.388
			c0.024,0.098,0.042,0.199,0.079,0.292c0.046,0.117,0.101,0.234,0.164,0.344c0.066,0.12,0.147,0.229,0.227,0.344
			c-0.021,0.003-0.042,0.009-0.063,0.009c-0.137-0.003-0.272,0-0.408-0.026c-0.096-0.019-0.196-0.013-0.294-0.025
			c-0.198-0.021-0.4-0.037-0.593-0.078c-0.252-0.056-0.5-0.128-0.745-0.206c-0.223-0.07-0.443-0.155-0.659-0.245
			C4.1,18.389,3.883,18.277,3.67,18.156c-0.3-0.17-0.587-0.361-0.861-0.571c-0.28-0.215-0.541-0.455-0.788-0.709
			c-0.243-0.253-0.464-0.526-0.669-0.812c-0.221-0.306-0.412-0.63-0.577-0.97c-0.121-0.247-0.225-0.502-0.319-0.76
			c-0.093-0.254-0.169-0.514-0.223-0.777c-0.051-0.246-0.096-0.496-0.128-0.746c-0.044-0.333-0.071-0.669-0.054-1.005
			c0.007-0.145,0.025-0.29,0.039-0.433c0.014-0.139,0.021-0.279,0.042-0.416c0.065-0.415,0.146-0.828,0.289-1.226
			c0.103-0.286,0.216-0.57,0.343-0.845c0.176-0.382,0.396-0.741,0.646-1.081c0.223-0.304,0.464-0.594,0.733-0.859
			c0.282-0.28,0.585-0.536,0.91-0.767c0.331-0.235,0.682-0.437,1.048-0.615c0.297-0.146,0.605-0.262,0.92-0.362
			C5.244,5.13,5.468,5.07,5.7,5.027c0.159-0.031,0.317-0.065,0.477-0.092C6.266,4.92,6.356,4.919,6.445,4.91
			c0.324-0.035,0.648-0.048,0.973-0.036C7.606,4.881,7.794,4.898,7.981,4.92c0.175,0.019,0.35,0.046,0.524,0.077
			c0.11,0.021,0.22,0.05,0.329,0.077C8.941,5.1,9.048,5.125,9.153,5.157C9.469,5.251,9.779,5.363,10.081,5.5
			c0.254,0.115,0.502,0.243,0.738,0.389c0.234,0.143,0.46,0.303,0.678,0.472c0.204,0.156,0.394,0.333,0.588,0.501
			C12.105,6.879,12.124,6.898,12.143,6.917z"/>
	</g>
	<path fill-rule="evenodd" clip-rule="evenodd" fill="#6B7F88" d="M7.807,9.956c0,0.731-0.004,1.463,0.003,2.193
		c0.002,0.217-0.048,0.405-0.176,0.576c-0.075,0.1-0.144,0.205-0.217,0.305c-0.069,0.094-0.158,0.166-0.267,0.214
		c-0.186,0.08-0.368,0.168-0.552,0.253c-0.145,0.065-0.292,0.123-0.438,0.19c-0.281,0.128-0.559,0.261-0.841,0.392
		c-0.197,0.09-0.397,0.174-0.596,0.264c-0.103,0.044-0.205,0.093-0.308,0.14c-0.101,0.046-0.197,0.103-0.301,0.132
		c-0.227,0.065-0.474,0.031-0.638-0.161c-0.163-0.192-0.229-0.418-0.164-0.664c0.045-0.177,0.157-0.315,0.328-0.396
		c0.25-0.114,0.502-0.226,0.753-0.34c0.2-0.089,0.402-0.175,0.603-0.267c0.195-0.087,0.389-0.18,0.583-0.27
		c0.156-0.071,0.313-0.137,0.468-0.207c0.117-0.052,0.232-0.106,0.347-0.161c0.073-0.035,0.108-0.094,0.111-0.173
		c0.001-0.036,0.001-0.071,0.001-0.105c0-1.404,0-2.809-0.001-4.214c0-0.189,0.064-0.344,0.202-0.471
		C6.839,7.063,6.995,7.02,7.171,7.038C7.2,7.041,7.229,7.047,7.257,7.049c0.224,0.011,0.38,0.125,0.487,0.314
		C7.792,7.449,7.809,7.541,7.809,7.64C7.806,8.411,7.807,9.184,7.807,9.956z"/>
</g>
</svg>
