<?xml version="1.0" encoding="utf-8"?>
<!-- Generator: Adobe Illustrator 19.0.1, SVG Export Plug-In . SVG Version: 6.00 Build 0)  -->
<svg version="1.1" id="Layer_1" xmlns="http://www.w3.org/2000/svg" xmlns:xlink="http://www.w3.org/1999/xlink" x="0px" y="0px"
	 viewBox="0 0 42.1 46.1" style="enable-background:new 0 0 42.1 46.1;" xml:space="preserve">
<style type="text/css">
	.st0{fill:#FFFFFF;}
	.st1{fill:#BBBBBB;}
	.st2{fill:#EC1C24;}
</style>
<g id="XMLID_940_">
	<path class="st0" d="M23,37.3c-3.6,0-6.9-1.4-9.4-3.9S9.7,27.6,9.7,24s1.4-6.9,3.9-9.4s5.9-3.9,9.4-3.9s6.9,1.4,9.4,3.9
		s3.9,5.9,3.9,9.4s-1.4,6.9-3.9,9.4S26.6,37.3,23,37.3z"/>
	<path class="st1" d="M23,11.2c3.3,0,6.6,1.2,9,3.7c5,5,5,13.1,0,18.1c-2.5,2.5-5.8,3.7-9,3.7s-6.6-1.2-9-3.7c-5-5-5-13.1,0-18.1
		C16.5,12.5,19.7,11.2,23,11.2 M23,10.2c-3.7,0-7.2,1.4-9.8,4c-5.4,5.4-5.4,14.1,0,19.5c2.6,2.6,6.1,4,9.8,4s7.2-1.4,9.8-4
		c2.6-2.6,4-6.1,4-9.8c0-3.7-1.4-7.2-4-9.8C30.2,11.6,26.7,10.2,23,10.2L23,10.2z"/>
</g>
<circle id="XMLID_31_" class="st2" cx="23" cy="24" r="6"/>
</svg>
