<?xml version="1.0" encoding="utf-8"?>
<!-- Generator: Adobe Illustrator 19.0.1, SVG Export Plug-In . SVG Version: 6.00 Build 0)  -->
<svg version="1.1" id="Layer_1" xmlns="http://www.w3.org/2000/svg" xmlns:xlink="http://www.w3.org/1999/xlink" x="0px" y="0px"
	 viewBox="0 0 29 38" style="enable-background:new 0 0 29 38;" xml:space="preserve">
<style type="text/css">
	.st0{fill:none;stroke:#EB2427;stroke-miterlimit:10;}
</style>
<path id="XMLID_4937_" class="st0" d="M14.2,6.4c-5,0-9,3.9-9,8.8c0,0.1,0,0.2,0,0.3c0,0.9,0.2,1.8,0.5,2.6
	c1.9,6.2,8.5,14.2,8.5,14.2s6.6-8.1,8.5-14.2c0.3-0.8,0.5-1.7,0.5-2.6c0-0.1,0-0.2,0-0.3C23.2,10.3,19.1,6.4,14.2,6.4z M14.2,19.5
	c-2.4,0-4.4-2-4.4-4.4c0-2.4,2-4.4,4.4-4.4c2.4,0,4.4,2,4.4,4.4C18.6,17.5,16.6,19.5,14.2,19.5z"/>
</svg>
