<?xml version="1.0" encoding="utf-8"?>
<!-- Generator: Adobe Illustrator 19.0.1, SVG Export Plug-In . SVG Version: 6.00 Build 0)  -->
<svg version="1.1" id="Layer_1" xmlns="http://www.w3.org/2000/svg" xmlns:xlink="http://www.w3.org/1999/xlink" x="0px" y="0px"
	 viewBox="0 0 76 79" style="enable-background:new 0 0 76 79;" xml:space="preserve">
<style type="text/css">
	.st0{fill:none;stroke:#2E4F60;stroke-miterlimit:10;}
	.st1{fill:#2E4F60;}
	.st2{fill:#FFFFFF;}
</style>
<g id="XMLID_714_">
	<path id="XMLID_2280_" class="st0" d="M38.1,65.1c-13.8,0-25-11.2-25-25c0-13.8,11.2-25,25-25c13.8,0,25,11.2,25,25
		C63.1,53.9,51.9,65.1,38.1,65.1z"/>
	<line id="XMLID_2279_" class="st0" x1="38.1" y1="15.1" x2="38.1" y2="65.1"/>
	<path id="XMLID_2277_" class="st0" d="M38.1,65.1c-8.3,0-15-11.2-15-25c0-13.8,6.7-25,15-25s15,11.2,15,25
		C53.2,53.9,46.4,65.1,38.1,65.1z"/>
	<line id="XMLID_2276_" class="st0" x1="16.7" y1="28.5" x2="59.6" y2="28.5"/>
	<line id="XMLID_2275_" class="st0" x1="13.1" y1="40.1" x2="63.1" y2="40.1"/>
	<line id="XMLID_2274_" class="st0" x1="16.7" y1="51.7" x2="59.7" y2="51.7"/>
	<g id="XMLID_2271_">
		<path id="XMLID_2272_" class="st1" d="M38.5,30.7c-2.9,2.9-10.4,3.7-10.4,3.7c-0.2,1-0.2,2-0.2,3.1c0,7.7,4.3,14.3,10.6,17.7
			c6.3-3.4,10.6-10,10.6-17.7c0-1-0.1-2.1-0.2-3.1C48.9,34.4,41.6,33.4,38.5,30.7L38.5,30.7z"/>
	</g>
	<g id="XMLID_715_">
		<path id="XMLID_2270_" class="st2" d="M39.9,41.4l1.6-4.4H37l-1.2,6.3H38L36.5,50l0,0l5.8-8.7H39.9z"/>
	</g>
</g>
</svg>
