<?xml version="1.0" encoding="utf-8"?>
<!-- Generator: Adobe Illustrator 19.0.1, SVG Export Plug-In . SVG Version: 6.00 Build 0)  -->
<svg version="1.1" id="Layer_1" xmlns="http://www.w3.org/2000/svg" xmlns:xlink="http://www.w3.org/1999/xlink" x="0px" y="0px"
	 viewBox="0 0 583 526" style="enable-background:new 0 0 583 526;" xml:space="preserve">
<style type="text/css">
	.st0{opacity:5.000000e-002;}
	.st1{fill:none;stroke:#231F20;stroke-miterlimit:10;}
	.st2{fill:none;stroke:#FFFFFF;stroke-miterlimit:10;}
	.st3{fill:#FFFFFF;stroke:#FFFFFF;stroke-width:1.8685;stroke-miterlimit:10;}
	.st4{fill:#D60D18;}
</style>
<g id="XMLID_768_" class="st0">
	<path id="XMLID_831_" class="st1" d="M293.5,505L49,505c-25.4,0-41.3-27.5-28.6-49.5l122.2-211.7L264.9,32.1
		c12.7-22,44.4-22,57.1,0l122.2,211.7l122.2,211.7c12.7,22-3.2,49.5-28.6,49.5L293.5,505z"/>
	<g id="XMLID_769_">
		<path id="XMLID_824_" d="M423.9,340.9c-4.6-47.5-35.1-87.4-77.2-106l-1.3-17.9c-51.3-16.2-102.6,0-102.6,0l-1.4,17.4
			c-42.7,18.3-73.7,58.5-78.3,106.4h-21.6v28.9c0,0,9.2,2.1,26,4.5c42.4,6.2,134,14.8,251.9-1c8-1,16-2.2,24.2-3.5h2v-28.9H423.9z
			 M269.8,354.4l13.9-62.4h-20.8l11.2-59.1h41.5l-14.8,40.5h22.6L269.8,354.4z"/>
	</g>
</g>
</svg>
