<?xml version="1.0" encoding="utf-8"?>
<!-- Generator: Adobe Illustrator 15.0.2, SVG Export Plug-In . SVG Version: 6.00 Build 0)  -->
<!DOCTYPE svg PUBLIC "-//W3C//DTD SVG 1.1//EN" "http://www.w3.org/Graphics/SVG/1.1/DTD/svg11.dtd">
<svg version="1.1" id="Layer_1" xmlns="http://www.w3.org/2000/svg" xmlns:xlink="http://www.w3.org/1999/xlink" x="0px" y="0px"
	 width="60px" height="60px" viewBox="0 0 60 60" enable-background="new 0 0 60 60" xml:space="preserve">
<g>
	<g>
		<path fill="#4A647F" d="M23.482,28.542v-1.181c0-1.353,0.244-2.479,0.738-3.376c0.49-0.898,1.352-1.826,2.582-2.786
			c1.463-1.155,2.407-2.054,2.831-2.694c0.424-0.639,0.637-1.401,0.637-2.286c0-1.032-0.344-1.826-1.033-2.38
			c-0.688-0.554-1.679-0.831-2.97-0.831c-1.168,0-2.25,0.166-3.246,0.5c-0.998,0.331-1.969,0.73-2.916,1.198l-1.549-3.247
			c2.496-1.391,5.169-2.085,8.025-2.085c2.409,0,4.321,0.591,5.737,1.771c1.414,1.182,2.121,2.812,2.121,4.89
			c0,0.922-0.135,1.742-0.406,2.462s-0.68,1.405-1.227,2.058s-1.492,1.501-2.832,2.546c-1.145,0.897-1.909,1.642-2.298,2.232
			c-0.387,0.591-0.58,1.384-0.58,2.38v0.83H23.482z M22.725,34.428c0-1.857,0.904-2.786,2.712-2.786
			c0.885,0,1.562,0.243,2.029,0.729c0.467,0.486,0.701,1.172,0.701,2.058c0,0.873-0.238,1.565-0.711,2.075s-1.146,0.766-2.02,0.766
			s-1.545-0.249-2.012-0.747C22.959,36.023,22.725,35.325,22.725,34.428z"/>
	</g>
	<path fill="none" stroke="#4A647F" stroke-width="3.5" stroke-miterlimit="10" d="M14.531,57.5c-2.85,0-7.039-2.561-6.931-6.818
		c0.111-4.324,4.082-6.933,6.931-6.933h32.655V2.5H12.812c-3.787,0-6.875,3.094-6.875,6.875v41.25c0,3.781,3.088,6.875,6.875,6.875
		h41.249V9.375"/>
	<path fill="#4A647F" d="M14.535,49.187L14.535,49.187h-0.004c-0.947,0-1.719,0.774-1.719,1.72c0,0.944,0.771,1.719,1.719,1.719
		h0.004h32.647v-3.438"/>
</g>
</svg>
