<?xml version="1.0" encoding="utf-8"?>
<!-- Generator: Adobe Illustrator 19.0.1, SVG Export Plug-In . SVG Version: 6.00 Build 0)  -->
<svg version="1.1" id="Layer_1" xmlns="http://www.w3.org/2000/svg" xmlns:xlink="http://www.w3.org/1999/xlink" x="0px" y="0px"
	 viewBox="0 0 78 69" style="enable-background:new 0 0 78 69;" xml:space="preserve">
<style type="text/css">
	.st0{fill:none;stroke:#FFFFFF;stroke-miterlimit:10;}
	.st1{fill:#FFFFFF;}
	.st2{fill:#D60D18;}
</style>
<g id="XMLID_2286_">
	<path id="XMLID_2291_" class="st0" d="M39.4,59.4h-25c-2.6,0-4.2-2.8-2.9-5.1L24,32.7l12.5-21.6c1.3-2.2,4.5-2.2,5.8,0l12.5,21.6
		l12.5,21.6c1.3,2.2-0.3,5.1-2.9,5.1L39.4,59.4z"/>
	<g id="XMLID_2289_">
		<path id="XMLID_2290_" class="st1" d="M54.9,42.6v3h-0.2c-0.8,0.1-1.7,0.3-2.5,0.4c-12,1.6-21.4,0.7-25.7,0.1
			c-1.7-0.2-2.7-0.5-2.7-0.5v-3h2.2c0.5-4.9,3.6-9,8-10.9l0.1-1.8c0,0,5.2-1.7,10.5,0l0.1,1.8c4.3,1.9,7.4,6,7.9,10.8H54.9z"/>
	</g>
	<g id="XMLID_2287_">
		<path id="XMLID_2288_" class="st2" d="M40.2,35.7l1.5-4.1h-4.2l-1.1,6h2.1L37,44l0,0l5.5-8.3H40.2z"/>
	</g>
</g>
</svg>
