<?xml version="1.0" encoding="utf-8"?>
<!-- Generator: Adobe Illustrator 19.0.1, SVG Export Plug-In . SVG Version: 6.00 Build 0)  -->
<svg version="1.1" id="Layer_1" xmlns="http://www.w3.org/2000/svg" xmlns:xlink="http://www.w3.org/1999/xlink" x="0px" y="0px"
	 viewBox="0 0 60.3 58.5" style="enable-background:new 0 0 60.3 58.5;" xml:space="preserve">
<style type="text/css">
	.st0{opacity:5.000000e-002;}
	.st1{fill:none;stroke:#231F20;stroke-miterlimit:10;}
	.st2{fill:none;stroke:#4A6580;stroke-miterlimit:10;}
	.st3{fill:#4A6580;}
	.st4{fill:#FFFFFF;}
</style>
<g id="XMLID_230_">
	<path id="XMLID_237_" class="st2" d="M30.1,47.3H12.1c-1.9,0-3-2-2.1-3.7L19,28l9-15.6c0.9-1.6,3.3-1.6,4.2,0l9,15.6l9,15.6
		c0.9,1.6-0.2,3.7-2.1,3.7H30.1z"/>
	<g id="XMLID_233_">
		<path id="XMLID_234_" class="st3" d="M41.4,35.2v2.1h-0.1c-0.6,0.1-1.2,0.2-1.8,0.3c-8.7,1.2-15.5,0.5-18.6,0.1
			c-1.2-0.2-1.9-0.3-1.9-0.3v-2.1h1.6c0.3-3.5,2.6-6.5,5.8-7.9l0.1-1.3c0,0,3.8-1.2,7.6,0l0.1,1.3c3.1,1.4,5.4,4.3,5.7,7.8H41.4z"/>
	</g>
	<g id="XMLID_231_">
		<path id="XMLID_232_" class="st4" d="M30.7,30.2l1.1-3h-3.1l-0.8,4.4h1.5l-1,4.6l0,0l4-6H30.7z"/>
	</g>
</g>
</svg>
