<?xml version="1.0" encoding="utf-8"?>
<!-- Generator: Adobe Illustrator 15.0.2, SVG Export Plug-In . SVG Version: 6.00 Build 0)  -->
<!DOCTYPE svg PUBLIC "-//W3C//DTD SVG 1.1//EN" "http://www.w3.org/Graphics/SVG/1.1/DTD/svg11.dtd">
<svg version="1.1" id="Layer_1" xmlns="http://www.w3.org/2000/svg" xmlns:xlink="http://www.w3.org/1999/xlink" x="0px" y="0px"
	 width="40px" height="40px" viewBox="0 0 40 40" enable-background="new 0 0 40 40" xml:space="preserve">
<circle fill="none" stroke="#4E657D" stroke-width="1.3" stroke-miterlimit="10" cx="20" cy="20" r="17.5"/>
<path fill="#4E657D" d="M29.143,18.522c0-3.587-1.051-6.5-2.348-6.522h0.016h-1.48c0,0-3.479,2.614-8.486,3.638
	c-0.152,0.811-0.25,1.773-0.25,2.885s0.098,2.076,0.25,2.884c5.01,1.024,8.486,3.639,8.486,3.639h1.48c-0.004,0-0.01,0-0.016-0.001
	C28.094,25.02,29.143,22.108,29.143,18.522L29.143,18.522z M26.301,24.059c-0.166,0-0.35-0.175-0.443-0.278
	c-0.225-0.25-0.441-0.642-0.627-1.131c-0.416-1.094-0.645-2.558-0.645-4.126c0-1.567,0.229-3.034,0.645-4.126
	c0.186-0.49,0.402-0.881,0.627-1.132c0.094-0.105,0.277-0.278,0.443-0.278c0.168,0,0.35,0.173,0.443,0.278
	c0.225,0.251,0.441,0.642,0.627,1.132c0.414,1.094,0.645,2.559,0.645,4.126c0,1.568-0.229,3.035-0.645,4.126
	c-0.186,0.49-0.402,0.881-0.627,1.131C26.65,23.884,26.469,24.059,26.301,24.059 M15.355,18.522c0-0.93,0.066-1.828,0.195-2.662
	c-0.846,0.115-1.586,0.184-2.506,0.184h-1.197l-0.99,1.689v1.574l0.99,1.691h1.197c0.92,0,1.66,0.067,2.506,0.185
	c-0.129-0.833-0.195-1.735-0.195-2.663V18.522z M17.432,22.325l-2.287-0.438l1.463,5.742c0.076,0.297,0.369,0.447,0.654,0.333
	l2.115-0.849c0.287-0.113,0.4-0.427,0.256-0.697L17.432,22.325L17.432,22.325z M26.301,20.656c-0.066,0-0.135-0.067-0.172-0.107
	c-0.086-0.099-0.168-0.248-0.24-0.436c-0.16-0.421-0.248-0.986-0.248-1.591s0.088-1.17,0.248-1.592
	c0.072-0.188,0.154-0.34,0.24-0.436c0.037-0.04,0.105-0.105,0.172-0.105s0.135,0.065,0.17,0.105c0.088,0.098,0.17,0.248,0.242,0.436
	c0.16,0.422,0.25,0.987,0.25,1.592s-0.09,1.17-0.25,1.591c-0.072,0.188-0.154,0.34-0.242,0.436
	C26.436,20.589,26.367,20.656,26.301,20.656"/>
</svg>
