<?xml version="1.0" encoding="utf-8"?>
<!-- Generator: Adobe Illustrator 16.0.0, SVG Export Plug-In . SVG Version: 6.00 Build 0)  -->
<!DOCTYPE svg PUBLIC "-//W3C//DTD SVG 1.1//EN" "http://www.w3.org/Graphics/SVG/1.1/DTD/svg11.dtd">
<svg version="1.1" xmlns="http://www.w3.org/2000/svg" xmlns:xlink="http://www.w3.org/1999/xlink" x="0px" y="0px" width="60px"
	 height="60px" viewBox="0 0 60 60" enable-background="new 0 0 60 60" xml:space="preserve">
<g id="Layer_2">
	<rect x="-1.16" fill-rule="evenodd" clip-rule="evenodd" fill="#D1D1D1" width="61.16" height="60"/>
</g>
<g id="Layer_1">
	<g>
		<path fill-rule="evenodd" clip-rule="evenodd" fill="none" stroke="#FFFFFF" stroke-width="3" stroke-miterlimit="10" d="
			M2.796,14.923C16.591,0.362,42.327-0.147,56.539,13.841c1.318,1.296,1.468,2.527,0.126,3.858
			c-1.722,1.705-3.446,3.408-5.168,5.117c-1.226,1.219-2.386,1.186-3.756,0.096c-1.779-1.414-3.657-2.717-5.583-3.918
			c-1.24-0.772-1.769-1.703-1.705-3.15c0.088-1.918,0.021-3.843,0.021-5.946c-3.661-1.323-7.439-1.872-11.267-1.682
			c-2.614,0.129-5.202,0.754-7.808,1.108c-1.205,0.163-1.84,0.727-1.62,1.974c0.811,4.606-0.521,8.052-5.192,9.724
			c-0.064,0.023-0.115,0.083-0.172,0.126c-4.232,3.141-4.229,3.139-7.96-0.534c-1.211-1.193-2.439-2.368-3.66-3.551
			C2.796,16.35,2.796,15.637,2.796,14.923z"/>
		
			<circle fill-rule="evenodd" clip-rule="evenodd" fill="none" stroke="#C0C0C0" stroke-width="3" stroke-miterlimit="10" cx="17.625" cy="31.882" r="3.807"/>
		
			<circle fill-rule="evenodd" clip-rule="evenodd" fill="none" stroke="#FFFFFF" stroke-width="3" stroke-miterlimit="10" cx="31.148" cy="31.882" r="3.808"/>
		
			<circle fill-rule="evenodd" clip-rule="evenodd" fill="none" stroke="#FFFFFF" stroke-width="3" stroke-miterlimit="10" cx="44.48" cy="31.882" r="3.809"/>
		<path fill-rule="evenodd" clip-rule="evenodd" fill="none" stroke="#FFFFFF" stroke-width="3" stroke-miterlimit="10" d="
			M21.432,43.152c0,2.104-1.704,3.81-3.808,3.81c-2.103,0-3.807-1.705-3.807-3.81c0-2.101,1.704-3.808,3.807-3.808
			C19.728,39.345,21.432,41.052,21.432,43.152z"/>
		<path fill-rule="evenodd" clip-rule="evenodd" fill="none" stroke="#FFFFFF" stroke-width="3" stroke-miterlimit="10" d="
			M34.956,43.152c0,2.104-1.705,3.81-3.809,3.81c-2.103,0-3.808-1.705-3.808-3.81c0-2.101,1.705-3.808,3.808-3.808
			C33.251,39.345,34.956,41.052,34.956,43.152z"/>
		<path fill-rule="evenodd" clip-rule="evenodd" fill="none" stroke="#FFFFFF" stroke-width="3" stroke-miterlimit="10" d="
			M48.289,43.152c0,2.104-1.705,3.81-3.809,3.81s-3.809-1.705-3.809-3.81c0-2.101,1.705-3.808,3.809-3.808
			S48.289,41.052,48.289,43.152z"/>
		
			<circle fill-rule="evenodd" clip-rule="evenodd" fill="none" stroke="#FFFFFF" stroke-width="3" stroke-miterlimit="10" cx="17.625" cy="53.628" r="3.807"/>
		
			<circle fill-rule="evenodd" clip-rule="evenodd" fill="none" stroke="#FFFFFF" stroke-width="3" stroke-miterlimit="10" cx="31.148" cy="53.628" r="3.808"/>
		
			<circle fill-rule="evenodd" clip-rule="evenodd" fill="none" stroke="#FFFFFF" stroke-width="3" stroke-miterlimit="10" cx="44.48" cy="53.628" r="3.809"/>
	</g>
</g>
</svg>
