<?xml version="1.0" encoding="utf-8"?>
<!-- Generator: Adobe Illustrator 16.0.0, SVG Export Plug-In . SVG Version: 6.00 Build 0)  -->
<!DOCTYPE svg PUBLIC "-//W3C//DTD SVG 1.1//EN" "http://www.w3.org/Graphics/SVG/1.1/DTD/svg11.dtd" [
	<!ENTITY ns_flows "http://ns.adobe.com/Flows/1.0/">
	<!ENTITY ns_extend "http://ns.adobe.com/Extensibility/1.0/">
	<!ENTITY ns_ai "http://ns.adobe.com/AdobeIllustrator/10.0/">
	<!ENTITY ns_graphs "http://ns.adobe.com/Graphs/1.0/">
]>
<svg version="1.1" xmlns:x="&ns_extend;" xmlns:i="&ns_ai;" xmlns:graph="&ns_graphs;"
	 xmlns="http://www.w3.org/2000/svg" xmlns:xlink="http://www.w3.org/1999/xlink" xmlns:a="http://ns.adobe.com/AdobeSVGViewerExtensions/3.0/"
	 x="0px" y="0px" width="60px" height="60px" viewBox="0 0 60 60" enable-background="new 0 0 60 60" xml:space="preserve">
<g id="Layer_2">
	<rect x="-0.839" y="-1.085" fill="#CD040B" fill-opacity="0.1" width="61.647" height="60.501"/>
</g>
<g id="Layer_1">
	<path fill="#FFFFFF" d="M51.011,26.412l-1.347-0.208l-0.241-1.344c-0.906-5.062-5.299-8.737-10.44-8.737
		c-1.751,0-3.429,0.419-4.968,1.24l-1.347,0.716l-0.997-1.154c-2.44-2.809-5.968-4.428-9.68-4.428
		c-6.958,0-12.575,5.445-12.797,12.398l-0.042,1.398l-1.354,0.38C3.229,27.949,0.04,32.152,0.04,36.889
		c0,5.416,4.059,9.952,9.437,10.548l0.631,0.066h39.255c5.854,0,10.619-4.761,10.619-10.614
		C59.981,31.633,56.205,27.224,51.011,26.412"/>
</g>
</svg>
