<?xml version="1.0" encoding="utf-8"?>
<!-- Generator: Adobe Illustrator 16.0.0, SVG Export Plug-In . SVG Version: 6.00 Build 0)  -->
<!DOCTYPE svg PUBLIC "-//W3C//DTD SVG 1.1//EN" "http://www.w3.org/Graphics/SVG/1.1/DTD/svg11.dtd" [
	<!ENTITY ns_flows "http://ns.adobe.com/Flows/1.0/">
	<!ENTITY ns_extend "http://ns.adobe.com/Extensibility/1.0/">
	<!ENTITY ns_ai "http://ns.adobe.com/AdobeIllustrator/10.0/">
	<!ENTITY ns_graphs "http://ns.adobe.com/Graphs/1.0/">
]>
<svg version="1.1" xmlns:x="&ns_extend;" xmlns:i="&ns_ai;" xmlns:graph="&ns_graphs;"
	 xmlns="http://www.w3.org/2000/svg" xmlns:xlink="http://www.w3.org/1999/xlink" xmlns:a="http://ns.adobe.com/AdobeSVGViewerExtensions/3.0/"
	 x="0px" y="0px" width="60px" height="60px" viewBox="0 0 60 60" enable-background="new 0 0 60 60" xml:space="preserve">
<g id="Layer_2">
	<rect x="-0.839" y="-1.085" fill="#EA262B" width="61.647" height="62.139"/>
</g>
<g id="Layer_1">
	<path display="none" fill="#EA2629" d="M34.077,8.611c-0.819,0-1.586-0.522-1.855-1.345l-1.214-3.705
		c-0.333-1.029,0.228-2.129,1.249-2.466c1.022-0.33,2.13,0.223,2.463,1.245l1.21,3.711c0.337,1.022-0.224,2.125-1.245,2.459
		C34.485,8.579,34.28,8.611,34.077,8.611"/>
	<path display="none" fill="#EA2629" d="M54.235,17.73c-0.823,0-1.583-0.521-1.853-1.345c-0.333-1.022,0.224-2.122,1.246-2.459
		l3.707-1.214c1.026-0.333,2.13,0.224,2.463,1.253c0.334,1.018-0.224,2.122-1.249,2.455l-3.708,1.214
		C54.64,17.698,54.434,17.73,54.235,17.73"/>
	<path display="none" fill="#EA2629" d="M46.252,8.494c-0.299,0-0.6-0.067-0.88-0.209c-0.962-0.486-1.349-1.66-0.859-2.622
		l1.764-3.477c0.486-0.965,1.661-1.349,2.622-0.859c0.962,0.49,1.349,1.661,0.859,2.619L47.99,7.43
		C47.646,8.104,46.961,8.494,46.252,8.494"/>
	<path display="none" fill="#EA2629" d="M24.841,15.591c-0.298,0-0.603-0.067-0.88-0.206l-3.481-1.767
		c-0.961-0.489-1.345-1.66-0.858-2.618c0.493-0.965,1.664-1.349,2.622-0.866l3.477,1.767c0.965,0.49,1.349,1.668,0.859,2.626
		C26.239,15.2,25.551,15.591,24.841,15.591"/>
	<path display="none" fill="#EA2629" d="M56.825,31.672c-0.298,0-0.596-0.071-0.88-0.213l-3.478-1.764
		c-0.961-0.486-1.348-1.661-0.858-2.623c0.49-0.958,1.661-1.345,2.622-0.858l3.478,1.767c0.962,0.489,1.349,1.661,0.855,2.622
		C58.224,31.281,57.539,31.672,56.825,31.672"/>
	<path fill="#FFFFFF" d="M51.011,26.412l-1.347-0.208l-0.241-1.344c-0.906-5.062-5.299-8.737-10.44-8.737
		c-1.751,0-3.429,0.419-4.968,1.24l-1.347,0.716l-0.997-1.154c-2.44-2.809-5.968-4.428-9.68-4.428
		c-6.958,0-12.575,5.445-12.797,12.398l-0.042,1.398l-1.354,0.38C3.229,27.949,0.04,32.152,0.04,36.889
		c0,5.416,4.059,9.952,9.437,10.548l0.631,0.066h39.255c5.854,0,10.619-4.761,10.619-10.614
		C59.981,31.633,56.205,27.224,51.011,26.412"/>
</g>
</svg>
