<?xml version="1.0" encoding="utf-8"?>
<!-- Generator: Adobe Illustrator 16.0.0, SVG Export Plug-In . SVG Version: 6.00 Build 0)  -->
<!DOCTYPE svg PUBLIC "-//W3C//DTD SVG 1.1//EN" "http://www.w3.org/Graphics/SVG/1.1/DTD/svg11.dtd" [
	<!ENTITY ns_flows "http://ns.adobe.com/Flows/1.0/">
	<!ENTITY ns_extend "http://ns.adobe.com/Extensibility/1.0/">
	<!ENTITY ns_ai "http://ns.adobe.com/AdobeIllustrator/10.0/">
	<!ENTITY ns_graphs "http://ns.adobe.com/Graphs/1.0/">
]>
<svg version="1.1" xmlns:x="&ns_extend;" xmlns:i="&ns_ai;" xmlns:graph="&ns_graphs;"
	 xmlns="http://www.w3.org/2000/svg" xmlns:xlink="http://www.w3.org/1999/xlink" xmlns:a="http://ns.adobe.com/AdobeSVGViewerExtensions/3.0/"
	 x="0px" y="0px" width="60px" height="60px" viewBox="0 0 60 60" enable-background="new 0 0 60 60" xml:space="preserve">
<g id="Layer_2">

		<rect x="-0.832" y="-0.251" fill="#CD040B" fill-opacity="0.1" width="61.664" height="60.501"/>
</g>
<g id="Layer_1">
	<g>
		<path fill="#FFFFFF" d="M34.521,27.157c1.282,2.505,0.299,5.567-2.202,6.862c-2.505,1.271-5.567,0.302-6.852-2.203
			c-1.277-2.5-0.295-5.572,2.198-6.86C30.159,23.688,33.234,24.656,34.521,27.157"/>
		<path fill="#FFFFFF" d="M11.485,52.803c-0.754,0-1.522-0.292-2.106-0.871c-5.99-5.993-9.287-13.967-9.287-22.441
			c0-8.478,3.297-16.446,9.295-22.443c1.16-1.16,3.046-1.16,4.202,0c1.167,1.163,1.167,3.044,0,4.208
			C8.722,16.126,6.037,22.6,6.037,29.49c0,6.892,2.683,13.362,7.553,18.237c1.163,1.155,1.163,3.04,0,4.204
			C13.01,52.511,12.246,52.803,11.485,52.803"/>
		<path fill="#FFFFFF" d="M48.503,52.803c-0.756,0-1.521-0.292-2.103-0.871c-1.162-1.164-1.162-3.049,0-4.204
			c4.87-4.868,7.552-11.346,7.552-18.237c0-6.89-2.682-13.364-7.556-18.235c-1.161-1.163-1.161-3.044,0-4.208
			c1.167-1.16,3.047-1.16,4.208,0C56.597,13.044,59.9,21.013,59.9,29.49c0,8.482-3.304,16.45-9.296,22.441
			C50.029,52.511,49.271,52.803,48.503,52.803"/>
		<path fill="#FFFFFF" d="M20.383,42.304c-0.823,0-1.639-0.314-2.262-0.938c-3.172-3.175-4.924-7.389-4.924-11.875
			c0-4.488,1.751-8.705,4.924-11.878c1.247-1.246,3.275-1.246,4.53,0c1.247,1.25,1.247,3.28-0.008,4.531
			c-1.955,1.96-3.039,4.57-3.039,7.347c0,2.772,1.084,5.385,3.046,7.349c1.247,1.246,1.247,3.275-0.008,4.526
			C22.022,41.989,21.201,42.304,20.383,42.304"/>
		<path fill="#FFFFFF" d="M39.614,42.304c-0.821,0-1.642-0.314-2.272-0.938c-1.243-1.251-1.25-3.28,0-4.526
			c1.963-1.964,3.046-4.576,3.046-7.349c0-2.777-1.083-5.387-3.046-7.347c-1.25-1.251-1.25-3.274-0.004-4.525
			c1.247-1.252,3.284-1.252,4.53-0.006c3.17,3.173,4.924,7.383,4.924,11.878c0,4.486-1.754,8.7-4.918,11.875
			C41.251,41.989,40.427,42.304,39.614,42.304"/>
	</g>
</g>
</svg>
