<?xml version="1.0" ?><!DOCTYPE svg  PUBLIC '-//W3C//DTD SVG 1.1//EN'  'http://www.w3.org/Graphics/SVG/1.1/DTD/svg11.dtd'><svg class="icon" height="30" p-id="2940" style="" t="1481209172088" version="1.1" viewBox="0 0 1024 1024" width="30" xmlns="http://www.w3.org/2000/svg" xmlns:xlink="http://www.w3.org/1999/xlink"><defs><style type="text/css"/></defs><path d="M410.678099 473.348538c21.774979 2.659997 44.452957 4.065996 67.751934 4.065996s45.977955-1.405999 67.751934-4.065996c130.630872-15.966984 228.622777-77.097925 232.142773-150.655853 0.065-1.360999 0.099-2.727997 0.099-4.097996 0-87.714914-134.310869-158.819845-299.993707-158.819845-165.683838 0-299.993707 71.104931-299.993707 158.819845 0 1.369999 0.035 2.735997 0.099 4.097996 3.519997 73.557928 101.515901 134.688868 232.142773 150.655853z" fill="#040000" p-id="2941"/><path d="M469.115042 542.60347c-0.934999-0.016-1.873998-0.014-2.808997-0.033-0.633999-0.014-1.266999-0.021-1.903999-0.037a560.185453 560.185453 0 0 1-13.614986-0.498999 549.281464 549.281464 0 0 1-11.433989-0.668c-0.466-0.028-0.926999-0.066-1.386999-0.099a554.491459 554.491459 0 0 1-11.260989-0.917999c-0.286-0.03-0.573999-0.048-0.857999-0.076-3.812996-0.357-7.594993-0.759999-11.355989-1.190998-0.624999-0.074-1.245999-0.142-1.865998-0.217a533.799479 533.799479 0 0 1-10.946989-1.412999c-0.576999-0.079-1.149999-0.161-1.727999-0.249-3.744996-0.534999-7.470993-1.099999-11.148989-1.708998-0.117-0.02-0.229-0.039-0.345999-0.061a497.149515 497.149515 0 0 1-11.04999-1.968998c-0.358-0.064-0.709999-0.129-1.072999-0.198a476.217535 476.217535 0 0 1-10.640989-2.168998c-0.516999-0.11-1.034999-0.223-1.551999-0.333999a491.77552 491.77552 0 0 1-10.442989-2.397998c-0.336-0.084-0.671999-0.168-1.016999-0.252a442.649568 442.649568 0 0 1-21.04098-5.696994c-0.332-0.099-0.662999-0.196-0.999999-0.295-3.321997-0.994999-6.599994-2.028998-9.84499-3.093997-0.374-0.121-0.744999-0.245-1.115999-0.368-3.299997-1.088999-6.556994-2.209998-9.770991-3.363996-0.081-0.03-0.163-0.063-0.248999-0.093a398.103611 398.103611 0 0 1-9.995991-3.765996 340.117668 340.117668 0 0 1-9.270991-3.806997c-0.173-0.071-0.354-0.215-0.525999-0.215h0.021c-59.845942-24.705976-100.684902-61.76694-109.597893-105.882896h-1.852998v105.880896c0 77.545924 105.009897 142.075861 243.843762 156.000848 0.923999-46.198955 18.424982-88.347914 46.836954-120.809882z" fill="#040000" p-id="2942"/><path d="M432.453078 728.752288c-1.917998-0.154-3.843996-0.289-5.746995-0.466999-0.286-0.026-0.577999-0.051-0.861999-0.078a540.091473 540.091473 0 0 1-11.356989-1.187999l-1.860998-0.22a549.623463 549.623463 0 0 1-10.951989-1.407998c-0.577999-0.082-1.145999-0.168-1.722999-0.25a516.619495 516.619495 0 0 1-11.494988-1.767998 522.11249 522.11249 0 0 1-11.04999-1.972998c-0.358-0.068-0.714999-0.129-1.072999-0.198a487.815524 487.815524 0 0 1-10.640989-2.166998c-0.521999-0.116-1.038999-0.224-1.555999-0.34a451.374559 451.374559 0 0 1-10.438989-2.395998 38.719962 38.719962 0 0 1-1.016999-0.253999 443.760567 443.760567 0 0 1-21.04098-5.689995c-0.332-0.104-0.667999-0.198-0.999999-0.297999a411.384598 411.384598 0 0 1-9.84499-3.088997c-0.374-0.129-0.744999-0.249-1.115999-0.375-3.299997-1.090999-6.560994-2.209998-9.770991-3.363997a5.513995 5.513995 0 0 1-0.248999-0.096 368.58664 368.58664 0 0 1-10.000991-3.764996c-3.140997-1.231999-6.225994-2.062998-9.266991-3.359997-0.173-0.068-0.345-0.671999-0.517999-0.658999-59.837942-26.469974-100.674902-60.879941-109.583893-106.758896h-1.852998v106.762896c0 87.712914 134.310869 158.819845 299.993707 158.819845 27.042974 0 53.223948-1.924998 78.146923-5.477995-58.211943-17.835983-104.472898-62.715939-124.122878-119.942883zM835.840684 807.674211v0.134l-52.922949-53.386948c15.156985-24.379976 23.936977-53.068948 23.936977-83.830918 0-87.890914-71.43493-159.032845-159.543844-159.032845-88.077914 0-159.599844 71.25093-159.599844 159.032845 0 87.887914 71.43093 159.036845 159.599844 159.036845 33.225968 0 64.089937-10.12499 89.546912-27.458973l51.95895 52.361948c6.043994 6.027994 14.333986 9.695991 23.514977 9.695991 18.335982 0 33.232968-14.804986 33.232967-33.137968-0.001-9.109991-3.761996-17.397983-9.72399-23.413977zM647.266868 780.539238c-60.93694 0-110.248892-49.214952-110.248892-109.915893 0-60.696941 49.329952-109.909893 110.248892-109.909893 60.914941 0 110.222892 49.212952 110.222892 109.909893 0 60.700941-49.333952 109.915893-110.222892 109.915893z" fill="#040000" p-id="2943"/></svg>