<?xml version="1.0" encoding="utf-8"?>
<!-- Generator: Adobe Illustrator 16.0.0, SVG Export Plug-In . SVG Version: 6.00 Build 0)  -->
<!DOCTYPE svg PUBLIC "-//W3C//DTD SVG 1.1//EN" "http://www.w3.org/Graphics/SVG/1.1/DTD/svg11.dtd" [
	<!ENTITY ns_flows "http://ns.adobe.com/Flows/1.0/">
	<!ENTITY ns_extend "http://ns.adobe.com/Extensibility/1.0/">
	<!ENTITY ns_ai "http://ns.adobe.com/AdobeIllustrator/10.0/">
	<!ENTITY ns_graphs "http://ns.adobe.com/Graphs/1.0/">
]>
<svg version="1.1" xmlns:x="&ns_extend;" xmlns:i="&ns_ai;" xmlns:graph="&ns_graphs;"
	 xmlns="http://www.w3.org/2000/svg" xmlns:xlink="http://www.w3.org/1999/xlink" xmlns:a="http://ns.adobe.com/AdobeSVGViewerExtensions/3.0/"
	 x="0px" y="0px" width="60px" height="60px" viewBox="0 0 60 60" enable-background="new 0 0 60 60" xml:space="preserve">
<g id="Layer_2">
	<rect y="-0.226" fill="#CD040B" width="60" height="60.567"/>
</g>
<g id="Layer_1">
	<path fill="#FFFFFF" d="M29.95,23.448c6.292,0,11.401-5.243,11.401-11.688c0-6.439-5.109-11.682-11.401-11.682
		c-6.287,0-11.401,5.243-11.401,11.682C18.549,18.206,23.663,23.448,29.95,23.448"/>
	<path fill="none" stroke="#FFFFFF" stroke-width="3" stroke-miterlimit="10" d="M44.577,25.175l-4.267-1.134
		c-2.774,2.442-6.374,3.931-10.312,3.938c-3.938-0.007-7.536-1.495-10.311-3.938l-4.27,1.134c-4.552,1.272-6.044,3.183-5.672,5.671
		l3.403,21.634c0.505,3.396,2.54,5.672,5.672,5.672h11.164h0.021h11.168c3.139,0,5.177-2.275,5.676-5.672l3.403-21.634
		C50.628,28.358,49.136,26.447,44.577,25.175"/>
	<path display="none" fill="#FFFFFF" d="M21.869,55.509c-0.292,0.285-0.668,0.431-1.044,0.431c-0.38,0-0.756-0.146-1.044-0.431
		c-2.969-2.973-4.609-6.925-4.609-11.125c0-4.208,1.64-8.159,4.609-11.129c0.581-0.573,1.512-0.573,2.089,0
		c0.574,0.577,0.574,1.512,0,2.086c-2.417,2.414-3.747,5.628-3.747,9.043c0,3.411,1.33,6.622,3.747,9.043
		C22.443,53.997,22.443,54.932,21.869,55.509"/>
	<path fill="#FFFFFF" d="M26.358,48.025c0.617,0.621,0.617,1.625,0,2.246c-0.314,0.307-0.72,0.468-1.121,0.468
		c-0.409,0-0.814-0.161-1.125-0.468c-1.57-1.57-2.439-3.663-2.439-5.888c0-2.228,0.869-4.317,2.439-5.888
		c0.621-0.625,1.629-0.625,2.246,0c0.617,0.617,0.617,1.622,0,2.242c-0.976,0.972-1.509,2.269-1.509,3.646
		C24.849,45.757,25.382,47.054,26.358,48.025"/>
	<path fill="#FFFFFF" stroke="#FFFFFF" stroke-width="0.25" stroke-miterlimit="10" d="M31.15,46.626
		c-1.243,0.632-2.758,0.153-3.397-1.088c-0.632-1.242-0.143-2.762,1.092-3.404c1.234-0.628,2.761-0.149,3.397,1.092
		C32.882,44.468,32.393,45.987,31.15,46.626"/>
	<path fill="#FFFFFF" d="M34.767,50.739c-0.406,0-0.812-0.161-1.122-0.468c-0.62-0.621-0.62-1.625,0-2.246
		c0.972-0.972,1.505-2.269,1.505-3.642c0-1.377-0.533-2.674-1.505-3.646c-0.62-0.62-0.62-1.621-0.003-2.242
		c0.62-0.625,1.625-0.625,2.246,0c1.577,1.57,2.439,3.66,2.439,5.888c0,2.225-0.862,4.317-2.433,5.888
		C35.581,50.578,35.175,50.739,34.767,50.739"/>
	<path display="none" fill="#FFFFFF" d="M40.219,55.509c-0.284,0.285-0.661,0.431-1.037,0.431c-0.38,0-0.76-0.146-1.044-0.431
		c-0.577-0.577-0.577-1.512,0-2.082c2.41-2.418,3.743-5.632,3.743-9.043c0-3.415-1.333-6.629-3.747-9.043
		c-0.577-0.574-0.577-1.509,0-2.086c0.573-0.573,1.509-0.573,2.085,0c2.97,2.97,4.61,6.921,4.61,11.129
		C44.829,48.584,43.188,52.536,40.219,55.509"/>
</g>
</svg>
