<?xml version="1.0" encoding="utf-8"?>
<!-- Generator: Adobe Illustrator 16.0.0, SVG Export Plug-In . SVG Version: 6.00 Build 0)  -->
<!DOCTYPE svg PUBLIC "-//W3C//DTD SVG 1.1//EN" "http://www.w3.org/Graphics/SVG/1.1/DTD/svg11.dtd" [
	<!ENTITY ns_flows "http://ns.adobe.com/Flows/1.0/">
	<!ENTITY ns_extend "http://ns.adobe.com/Extensibility/1.0/">
	<!ENTITY ns_ai "http://ns.adobe.com/AdobeIllustrator/10.0/">
	<!ENTITY ns_graphs "http://ns.adobe.com/Graphs/1.0/">
]>
<svg version="1.1" xmlns:x="&ns_extend;" xmlns:i="&ns_ai;" xmlns:graph="&ns_graphs;"
	 xmlns="http://www.w3.org/2000/svg" xmlns:xlink="http://www.w3.org/1999/xlink" xmlns:a="http://ns.adobe.com/AdobeSVGViewerExtensions/3.0/"
	 x="0px" y="0px" width="60px" height="60px" viewBox="0 0 60 60" enable-background="new 0 0 60 60" xml:space="preserve">
<g id="Layer_3" display="none">
</g>
<g id="Layer_2">
	<rect x="-3.535" y="-0.5" fill="#EA2629" width="63.535" height="60.5"/>
</g>
<g id="Layer_1">
	<path display="none" fill="#EA2629" d="M56.559,1.026c1.457,0,2.645,1.532,2.645,3.412v51.131c0,1.876-1.188,3.405-2.645,3.405
		H3.618c-1.46,0-2.65-1.529-2.65-3.405V4.438c0-1.88,1.189-3.412,2.65-3.412H56.559 M56.559-4.083H3.618
		C-0.04-4.083-3-0.272-3,4.438v51.131c0,4.705,2.96,8.515,6.618,8.515h52.941c3.653,0,6.617-3.81,6.617-8.515V4.438
		C63.176-0.272,60.212-4.083,56.559-4.083"/>
	<path display="none" fill="#EA2629" d="M51.342,8.082H9.338c-0.996,0-1.803,0.799-1.803,1.795v30.006
		c0,0.992,0.807,1.799,1.803,1.799h42.003c0.993,0,1.799-0.807,1.799-1.799V9.876C53.141,8.881,52.335,8.082,51.342,8.082
		 M30.617,37.096h-0.575c-1.32-0.299-2.295-1.186-2.295-2.686c0-2.135,2.125-3.252,3.742-2.42c0.425,0.217,0.875,0.699,1.124,1.176
		C33.555,34.941,32.234,36.936,30.617,37.096 M37.735,30.482c-0.582,0.602-1.536,0.602-2.111,0c-2.923-3.041-7.648-3.041-10.572,0
		c-0.578,0.602-1.527,0.602-2.11,0c-0.582-0.621-0.582-1.596,0-2.211c4.08-4.233,10.714-4.233,14.793,0
		C38.316,28.887,38.316,29.861,37.735,30.482 M41.961,26.086c-0.582,0.599-1.527,0.599-2.112,0c-5.255-5.455-13.762-5.455-19.016,0
		c-0.589,0.599-1.535,0.599-2.113,0c-0.589-0.607-0.589-1.588,0-2.206c6.411-6.669,16.827-6.669,23.241,0
		C42.547,24.498,42.547,25.479,41.961,26.086 M46.191,21.688c-0.59,0.6-1.527,0.6-2.116,0c-7.59-7.888-19.887-7.888-27.473,0
		c-0.589,0.6-1.528,0.6-2.117,0c-0.582-0.6-0.582-1.584,0-2.191c8.756-9.11,22.95-9.11,31.706,0
		C46.772,20.104,46.772,21.089,46.191,21.688"/>
	<path display="none" fill="#EA2629" d="M58.541,50.707H2.135c-0.963,0-1.746-0.195-1.746-0.436s0.783-0.438,1.746-0.438h56.406
		c0.961,0,1.746,0.197,1.746,0.438S59.502,50.707,58.541,50.707"/>
	<path fill="#FFFFFF" d="M53.008,6.938c1.271,0,2.301,1.03,2.301,2.3v34.516c0,1.27-1.029,2.303-2.301,2.303H6.988
		c-1.269,0-2.299-1.033-2.299-2.303V9.238c0-1.27,1.03-2.3,2.299-2.3H53.008 M53.008,3.486H6.988c-3.175,0-5.752,2.576-5.752,5.752
		v34.516c0,3.178,2.577,5.75,5.752,5.75h46.02c3.18,0,5.756-2.572,5.756-5.75V9.238C58.764,6.063,56.188,3.486,53.008,3.486"/>
	<path fill="#FFFFFF" d="M57.035,56.514H2.961c-0.921,0-1.673-0.75-1.673-1.67c0-0.928,0.752-1.678,1.673-1.678h54.074
		c0.92,0,1.676,0.75,1.676,1.678C58.711,55.764,57.955,56.514,57.035,56.514"/>
	<path fill="#FFFFFF" d="M32.012,33.613h-5.737c3.015,2.873,6.735,5.01,10.879,6.115C35.203,38.234,33.459,36.146,32.012,33.613"/>
	<path fill="#FFFFFF" d="M40.215,33.613h-6.775c2.031,3.34,4.613,5.762,7.51,6.82c0.688,0.078,1.383,0.119,2.084,0.137v-4.213
		C41.609,36.131,40.477,35.021,40.215,33.613"/>
	<path fill="#FFFFFF" d="M25.026,32.346h6.3c-2.279-4.509-3.669-10.213-3.758-16.368h-9.13C18.596,22.27,21.06,28.002,25.026,32.346
		"/>
	<path fill="#FFFFFF" d="M40.215,32.346c0.262-1.416,1.395-2.518,2.818-2.746V15.978H28.838c0.088,6.23,1.539,11.962,3.885,16.368
		H40.215z"/>
	<path fill="#FFFFFF" d="M40.215,33.613h-6.775c2.031,3.34,4.613,5.762,7.51,6.82c0.688,0.078,1.383,0.119,2.084,0.137v-4.213
		C41.609,36.131,40.477,35.021,40.215,33.613"/>
	<path fill="#FFFFFF" d="M27.859,10.389h-8.932c-0.281,1.402-0.455,2.844-0.489,4.318h9.13
		C27.589,13.235,27.695,11.794,27.859,10.389"/>
	<path fill="#FFFFFF" d="M43.033,10.389H29.129c-0.167,1.405-0.271,2.847-0.291,4.318h14.195V10.389z"/>
	<path fill="#FFFFFF" d="M43.033,15.978H28.838c0.093,6.23,1.543,11.962,3.885,16.368h7.492c0.264-1.416,1.395-2.518,2.818-2.746
		V15.978z"/>
	<path fill="#FFFFFF" d="M44.303,14.707h7.555v-2.591c0-0.958-0.773-1.728-1.727-1.728h-5.828V14.707z"/>
	<path fill="#FFFFFF" d="M44.303,15.978v13.649c1.34,0.287,2.393,1.365,2.646,2.719h4.908V15.978H44.303z"/>
	<path fill="#FFFFFF" d="M46.949,33.613c-0.254,1.354-1.311,2.43-2.646,2.719v4.238c0.699-0.018,1.4-0.059,2.084-0.137
		c2.002-0.73,3.85-2.133,5.471-4.021v-2.799H46.949z"/>
	<path fill="#FFFFFF" d="M15.041,15.343c0-1.69,0.161-3.343,0.441-4.954H9.863c-0.952,0-1.724,0.772-1.724,1.728v28.761
		c0,0.951,0.772,1.727,1.724,1.727h25.104C23.424,38.91,15.041,28.091,15.041,15.343"/>
	<path fill="#FFFFFF" d="M31.326,32.346c-2.279-4.509-3.669-10.213-3.758-16.368h-9.13c0.158,6.292,2.622,12.024,6.587,16.368
		H31.326z"/>
	<path fill="#FFFFFF" d="M32.012,33.613h-5.737c3.015,2.873,6.735,5.01,10.879,6.115C35.203,38.234,33.459,36.146,32.012,33.613"/>
	<path fill="#FFFFFF" d="M50.182,39.729c0.572-0.15,1.129-0.336,1.68-0.523v-0.979C51.32,38.773,50.764,39.283,50.182,39.729"/>
</g>
</svg>
