<?xml version="1.0" encoding="utf-8"?>
<!-- Generator: Adobe Illustrator 16.0.0, SVG Export Plug-In . SVG Version: 6.00 Build 0)  -->
<!DOCTYPE svg PUBLIC "-//W3C//DTD SVG 1.1//EN" "http://www.w3.org/Graphics/SVG/1.1/DTD/svg11.dtd" [
	<!ENTITY ns_flows "http://ns.adobe.com/Flows/1.0/">
	<!ENTITY ns_extend "http://ns.adobe.com/Extensibility/1.0/">
	<!ENTITY ns_ai "http://ns.adobe.com/AdobeIllustrator/10.0/">
	<!ENTITY ns_graphs "http://ns.adobe.com/Graphs/1.0/">
]>
<svg version="1.1" xmlns:x="&ns_extend;" xmlns:i="&ns_ai;" xmlns:graph="&ns_graphs;"
	 xmlns="http://www.w3.org/2000/svg" xmlns:xlink="http://www.w3.org/1999/xlink" xmlns:a="http://ns.adobe.com/AdobeSVGViewerExtensions/3.0/"
	 x="0px" y="0px" width="60px" height="60px" viewBox="0 0 60 60" enable-background="new 0 0 60 60" xml:space="preserve">
<g id="Layer_2" display="none">
	<rect display="inline" fill="#CD040B" width="60.047" height="60"/>
</g>
<g id="Layer_1">
	<g>
		<path fill="#FFFFFF" d="M45.226,18.256c0-1.65-1.337-2.984-2.986-2.984H18.356c-1.65,0-2.988,1.333-2.988,2.984v23.886
			c0,1.65,1.338,2.987,2.988,2.987h23.883c1.649,0,2.986-1.337,2.986-2.987V18.256z"/>
		<path fill="#FFFFFF" d="M58.161,27.212c0.992,0,1.792-0.8,1.792-1.786c0-0.992-0.8-1.792-1.792-1.792h-3.977v-5.976h3.977
			c0.992,0,1.792-0.796,1.792-1.789c0-0.989-0.8-1.792-1.792-1.792h-3.977v-1.992c0-3.283-2.987-5.769-6.273-5.769h-2.088V1.839
			c0-0.989-0.804-1.792-1.793-1.792c-0.987,0-1.788,0.804-1.788,1.792v4.478h-5.972V1.839c0-0.989-0.804-1.792-1.793-1.792
			c-0.988,0-1.792,0.804-1.792,1.792v4.478h-5.371V1.839c0-0.989-0.807-1.792-1.792-1.792c-0.993,0-1.793,0.804-1.793,1.792v4.478
			h-5.971V1.839c0-0.989-0.804-1.792-1.793-1.792c-0.989,0-1.789,0.804-1.789,1.792v4.478h-2.091c-3.283,0-5.673,2.486-5.673,5.769
			v1.992H1.839c-0.992,0-1.792,0.804-1.792,1.792c0,0.992,0.8,1.789,1.792,1.789h4.574v5.976H1.839c-0.992,0-1.792,0.8-1.792,1.792
			c0,0.985,0.8,1.786,1.792,1.786h4.574v5.975H1.839c-0.992,0-1.792,0.8-1.792,1.793c0,0.989,0.8,1.793,1.792,1.793h4.574v5.37
			H1.839c-0.992,0-1.792,0.804-1.792,1.793c0,0.988,0.8,1.792,1.792,1.792h4.574v2.188c0,3.282,2.39,6.17,5.673,6.17h2.091v4.076
			c0,0.988,0.8,1.792,1.789,1.792c0.989,0,1.793-0.804,1.793-1.792v-4.076h5.971v4.076c0,0.988,0.8,1.792,1.793,1.792
			c0.985,0,1.792-0.804,1.792-1.792v-4.076h5.371v4.076c0,0.988,0.804,1.792,1.792,1.792c0.989,0,1.793-0.804,1.793-1.792v-4.076
			h5.972v4.076c0,0.988,0.801,1.792,1.788,1.792c0.989,0,1.793-0.804,1.793-1.792v-4.076h2.088c3.286,0,6.273-2.888,6.273-6.17
			v-2.188h3.977c0.992,0,1.792-0.804,1.792-1.792c0-0.989-0.8-1.793-1.792-1.793h-3.977v-5.37h3.977
			c0.992,0,1.792-0.804,1.792-1.793c0-0.993-0.8-1.793-1.792-1.793h-3.977v-5.975H58.161z M50.6,48.113
			c0,1.319-1.07,2.391-2.39,2.391H12.385c-1.32,0-2.387-1.071-2.387-2.391V12.285c0-1.319,1.067-2.386,2.387-2.386H48.21
			c1.319,0,2.39,1.067,2.39,2.386V48.113z"/>
	</g>
</g>
</svg>
